<?xml version="1.0" encoding="utf-8"?>
<!-- Generator: Adobe Illustrator 16.0.0, SVG Export Plug-In . SVG Version: 6.00 Build 0)  -->
<!DOCTYPE svg PUBLIC "-//W3C//DTD SVG 1.1//EN" "http://www.w3.org/Graphics/SVG/1.1/DTD/svg11.dtd">
<svg version="1.1" id="Layer_1" xmlns="http://www.w3.org/2000/svg" xmlns:xlink="http://www.w3.org/1999/xlink" x="0px" y="0px"
	 width="1200px" height="580px" viewBox="0 0 1200 580" enable-background="new 0 0 1200 580" xml:space="preserve">
<rect x="2.251" y="1.172" fill="#CFCECE" stroke="#000000" stroke-width="4" stroke-miterlimit="10" width="1197.749" height="578.828"/>
<polyline fill="#7D7D7D" stroke="#000000" stroke-width="2" stroke-miterlimit="10" points="246.941,157.898 246.941,186.335 
	278.21,186.335 278.21,157.207 "/>
<circle fill="#7D7D7D" stroke="#000000" stroke-width="2" stroke-miterlimit="10" cx="262.562" cy="156.724" r="15.635"/>
<line fill="none" stroke="#000000" stroke-width="2" stroke-miterlimit="10" x1="262.562" y1="141.089" x2="262.563" y2="156.724"/>
<line fill="none" stroke="#000000" stroke-width="2" stroke-miterlimit="10" x1="262.576" y1="156.639" x2="249.738" y2="165.669"/>
<line fill="none" stroke="#000000" stroke-width="2" stroke-miterlimit="10" x1="262.576" y1="156.639" x2="275.387" y2="165.669"/>
<circle fill="#FFFFFF" stroke="#000000" stroke-width="2" stroke-miterlimit="10" cx="262.562" cy="156.724" r="1.502"/>
<circle fill="#818184" stroke="#000000" stroke-width="2" stroke-miterlimit="10" cx="592.165" cy="507.553" r="12.859"/>
<polyline fill="#818184" stroke="#000000" stroke-width="2" stroke-miterlimit="10" points="585.344,518.457 577.611,525.316 
	606.717,525.316 598.983,518.457 "/>
<polyline fill="#818184" stroke="#000000" stroke-width="2" stroke-miterlimit="10" points="592.163,494.695 616.904,494.695 
	616.904,503.193 604.264,503.193 "/>
<circle fill="#818184" stroke="#000000" stroke-width="2" stroke-miterlimit="10" cx="592.165" cy="507.553" r="9.515"/>
<circle fill="#818184" stroke="#000000" stroke-width="2" stroke-miterlimit="10" cx="590.47" cy="509.114" r="12.86"/>
<polyline fill="#818184" stroke="#000000" stroke-width="2" stroke-miterlimit="10" points="583.652,520.016 575.918,526.875 
	605.023,526.875 597.291,520.016 "/>
<polyline fill="#818184" stroke="#000000" stroke-width="2" stroke-miterlimit="10" points="590.47,496.254 615.211,496.254 
	615.211,504.754 602.57,504.754 "/>
<circle fill="#ED1C24" stroke="#000000" stroke-width="2" stroke-miterlimit="10" cx="590.471" cy="509.114" r="9.516"/>
<line fill="none" stroke="#000000" stroke-width="2" stroke-miterlimit="10" x1="605.023" y1="526.875" x2="606.801" y2="525.316"/>
<ellipse fill="#7D7D7D" stroke="#000000" stroke-miterlimit="10" cx="440.612" cy="468.086" rx="24.964" ry="4.32"/>
<ellipse fill="#7D7D7D" stroke="#000000" stroke-miterlimit="10" cx="440.612" cy="420.692" rx="24.964" ry="4.318"/>
<rect x="415.647" y="420.42" fill="#7D7D7D" stroke="#000000" stroke-miterlimit="10" width="49.928" height="47.666"/>
<rect x="416.875" y="421.592" fill="#44B2E5" stroke="#000000" stroke-miterlimit="10" width="47.475" height="45.322"/>
<path fill="none" stroke="#000000" stroke-miterlimit="10" d="M415.647,420.42c0,0,22.331,0,49.928,0"/>
<polyline fill="#7D7D7D" stroke="#000000" stroke-width="2" stroke-miterlimit="10" points="346.702,157.785 346.702,186.222 
	377.971,186.222 377.971,157.093 "/>
<circle fill="#7D7D7D" stroke="#000000" stroke-width="2" stroke-miterlimit="10" cx="362.323" cy="156.609" r="15.634"/>
<line fill="none" stroke="#000000" stroke-width="2" stroke-miterlimit="10" x1="362.322" y1="140.976" x2="362.323" y2="156.609"/>
<line fill="none" stroke="#000000" stroke-width="2" stroke-miterlimit="10" x1="362.336" y1="156.525" x2="349.498" y2="165.555"/>
<line fill="none" stroke="#000000" stroke-width="2" stroke-miterlimit="10" x1="362.336" y1="156.525" x2="375.147" y2="165.555"/>
<circle fill="#FFFFFF" stroke="#000000" stroke-width="2" stroke-miterlimit="10" cx="362.323" cy="156.609" r="1.503"/>
<polyline fill="#7D7D7D" stroke="#000000" stroke-width="2" stroke-miterlimit="10" points="446.962,157.898 446.962,186.335 
	478.231,186.335 478.231,157.207 "/>
<circle fill="#7D7D7D" stroke="#000000" stroke-width="2" stroke-miterlimit="10" cx="462.583" cy="156.724" r="15.635"/>
<line fill="none" stroke="#000000" stroke-width="2" stroke-miterlimit="10" x1="462.583" y1="141.089" x2="462.583" y2="156.724"/>
<line fill="none" stroke="#000000" stroke-width="2" stroke-miterlimit="10" x1="462.597" y1="156.639" x2="449.759" y2="165.669"/>
<line fill="none" stroke="#000000" stroke-width="2" stroke-miterlimit="10" x1="462.597" y1="156.639" x2="475.407" y2="165.669"/>
<circle fill="#FFFFFF" stroke="#000000" stroke-width="2" stroke-miterlimit="10" cx="462.583" cy="156.724" r="1.503"/>
<polyline fill="#7D7D7D" stroke="#000000" stroke-width="2" stroke-miterlimit="10" points="546.723,157.785 546.723,186.222 
	577.992,186.222 577.992,157.093 "/>
<circle fill="#7D7D7D" stroke="#000000" stroke-width="2" stroke-miterlimit="10" cx="562.343" cy="156.609" r="15.634"/>
<line fill="none" stroke="#000000" stroke-width="2" stroke-miterlimit="10" x1="562.343" y1="140.976" x2="562.344" y2="156.609"/>
<line fill="none" stroke="#000000" stroke-width="2" stroke-miterlimit="10" x1="562.357" y1="156.525" x2="549.52" y2="165.555"/>
<line fill="none" stroke="#000000" stroke-width="2" stroke-miterlimit="10" x1="562.357" y1="156.525" x2="575.168" y2="165.555"/>
<circle fill="#FFFFFF" stroke="#000000" stroke-width="2" stroke-miterlimit="10" cx="562.343" cy="156.609" r="1.502"/>
<polyline fill="#7D7D7D" stroke="#000000" stroke-width="2" stroke-miterlimit="10" points="646.038,157.797 646.038,186.236 
	677.307,186.236 677.307,157.106 "/>
<circle fill="#7D7D7D" stroke="#000000" stroke-width="2" stroke-miterlimit="10" cx="661.659" cy="156.623" r="15.634"/>
<line fill="none" stroke="#000000" stroke-width="2" stroke-miterlimit="10" x1="661.658" y1="142.988" x2="661.659" y2="158.623"/>
<line fill="none" stroke="#000000" stroke-width="2" stroke-miterlimit="10" x1="661.672" y1="156.539" x2="648.834" y2="165.568"/>
<line fill="none" stroke="#000000" stroke-width="2" stroke-miterlimit="10" x1="661.672" y1="156.539" x2="674.483" y2="165.568"/>
<circle fill="#FFFFFF" stroke="#000000" stroke-width="2" stroke-miterlimit="10" cx="661.659" cy="156.623" r="1.502"/>
<g>
	<polygon fill="#909090" stroke="#020202" stroke-width="2" stroke-miterlimit="10" points="480.817,66.412 480.817,71.931 
		476.138,71.931 476.138,66.412 	"/>
	
		<polygon fill="#909090" stroke="#020202" stroke-width="2" stroke-linecap="round" stroke-linejoin="round" stroke-miterlimit="10" points="
		476.138,66.412 476.138,71.931 480.817,71.931 480.817,66.412 476.138,66.412 	"/>
	
		<line fill="none" stroke="#020202" stroke-width="2" stroke-linecap="round" stroke-linejoin="round" stroke-miterlimit="10" x1="476.138" y1="69.172" x2="472.922" y2="69.172"/>
	<text transform="matrix(0 1.1797 -1 0 477.2324 69.168)" fill="#909090" font-family="'ArialMT'" font-size="4.1263"> </text>
	
		<text transform="matrix(0 1.1797 -1 0 477.2324 69.168)" fill="none" stroke="#020202" stroke-width="2" font-family="'ArialMT'" font-size="4.1263"> </text>
	<polygon fill="#909090" stroke="#020202" stroke-width="2" stroke-miterlimit="10" points="469.998,62.273 475.846,62.273 
		469.998,76.072 475.846,76.072 469.998,62.273 	"/>
	
		<polygon fill="#9B9B9B" stroke="#020202" stroke-width="2" stroke-linecap="round" stroke-linejoin="round" stroke-miterlimit="10" points="
		469.998,62.273 475.846,62.273 469.998,76.072 475.846,76.072 469.998,62.273 	"/>
</g>
<g>
	<polygon fill="#909090" stroke="#020202" stroke-width="2" stroke-miterlimit="10" points="580.578,66.41 580.578,71.929 
		575.899,71.929 575.899,66.41 	"/>
	
		<polygon fill="#909090" stroke="#020202" stroke-width="2" stroke-linecap="round" stroke-linejoin="round" stroke-miterlimit="10" points="
		575.899,66.41 575.899,71.929 580.578,71.929 580.578,66.41 575.899,66.41 	"/>
	
		<line fill="none" stroke="#020202" stroke-width="2" stroke-linecap="round" stroke-linejoin="round" stroke-miterlimit="10" x1="575.899" y1="69.169" x2="572.682" y2="69.169"/>
	<text transform="matrix(0 1.1797 -1 0 576.9922 69.165)" fill="#909090" font-family="'ArialMT'" font-size="4.1263"> </text>
	
		<text transform="matrix(0 1.1797 -1 0 576.9922 69.165)" fill="none" stroke="#020202" stroke-width="2" font-family="'ArialMT'" font-size="4.1263"> </text>
	<polygon fill="#909090" stroke="#020202" stroke-width="2" stroke-miterlimit="10" points="569.758,62.27 575.607,62.27 
		569.758,76.069 575.607,76.069 569.758,62.27 	"/>
	
		<polygon fill="#9B9B9B" stroke="#020202" stroke-width="2" stroke-linecap="round" stroke-linejoin="round" stroke-miterlimit="10" points="
		569.758,62.27 575.607,62.27 569.758,76.069 575.607,76.069 569.758,62.27 	"/>
</g>
<g>
	<polygon fill="#909090" stroke="#020202" stroke-width="2" stroke-miterlimit="10" points="281.094,66.412 281.094,71.931 
		276.415,71.931 276.415,66.412 	"/>
	
		<polygon fill="#909090" stroke="#020202" stroke-width="2" stroke-linecap="round" stroke-linejoin="round" stroke-miterlimit="10" points="
		276.415,66.412 276.415,71.931 281.094,71.931 281.094,66.412 276.415,66.412 	"/>
	
		<line fill="none" stroke="#020202" stroke-width="2" stroke-linecap="round" stroke-linejoin="round" stroke-miterlimit="10" x1="276.415" y1="69.171" x2="273.199" y2="69.171"/>
	<text transform="matrix(0 1.1797 -1 0 277.5098 69.167)" fill="#909090" font-family="'ArialMT'" font-size="4.1263"> </text>
	
		<text transform="matrix(0 1.1797 -1 0 277.5098 69.167)" fill="none" stroke="#020202" stroke-width="2" font-family="'ArialMT'" font-size="4.1263"> </text>
	<polygon fill="#909090" stroke="#020202" stroke-width="2" stroke-miterlimit="10" points="270.275,62.271 276.123,62.271 
		270.275,76.07 276.123,76.07 270.275,62.271 	"/>
	
		<polygon fill="#9B9B9B" stroke="#020202" stroke-width="2" stroke-linecap="round" stroke-linejoin="round" stroke-miterlimit="10" points="
		270.275,62.271 276.123,62.271 270.275,76.07 276.123,76.07 270.275,62.271 	"/>
</g>
<g>
	<polygon fill="#909090" stroke="#020202" stroke-width="2" stroke-miterlimit="10" points="380.855,66.408 380.855,71.927 
		376.177,71.927 376.177,66.408 	"/>
	
		<polygon fill="#909090" stroke="#020202" stroke-width="2" stroke-linecap="round" stroke-linejoin="round" stroke-miterlimit="10" points="
		376.177,66.408 376.177,71.927 380.855,71.927 380.855,66.408 376.177,66.408 	"/>
	
		<line fill="none" stroke="#020202" stroke-width="2" stroke-linecap="round" stroke-linejoin="round" stroke-miterlimit="10" x1="376.177" y1="69.168" x2="372.959" y2="69.168"/>
	<text transform="matrix(0 1.1797 -1 0 377.2715 69.165)" fill="#909090" font-family="'ArialMT'" font-size="4.1263"> </text>
	
		<text transform="matrix(0 1.1797 -1 0 377.2715 69.165)" fill="none" stroke="#020202" stroke-width="2" font-family="'ArialMT'" font-size="4.1263"> </text>
	<polygon fill="#909090" stroke="#020202" stroke-width="2" stroke-miterlimit="10" points="370.036,62.269 375.884,62.269 
		370.036,76.067 375.884,76.067 370.036,62.269 	"/>
	
		<polygon fill="#9B9B9B" stroke="#020202" stroke-width="2" stroke-linecap="round" stroke-linejoin="round" stroke-miterlimit="10" points="
		370.036,62.269 375.884,62.269 370.036,76.067 375.884,76.067 370.036,62.269 	"/>
</g>
<g>
	<polygon fill="#909090" stroke="#020202" stroke-width="2" stroke-miterlimit="10" points="680.95,66.414 680.95,71.933 
		676.271,71.933 676.271,66.414 	"/>
	
		<polygon fill="#909090" stroke="#020202" stroke-width="2" stroke-linecap="round" stroke-linejoin="round" stroke-miterlimit="10" points="
		676.271,66.414 676.271,71.933 680.95,71.933 680.95,66.414 676.271,66.414 	"/>
	
		<line fill="none" stroke="#020202" stroke-width="2" stroke-linecap="round" stroke-linejoin="round" stroke-miterlimit="10" x1="676.271" y1="69.174" x2="673.055" y2="69.174"/>
	<text transform="matrix(0 1.1797 -1 0 677.3652 69.1709)" fill="#909090" font-family="'ArialMT'" font-size="4.1263"> </text>
	
		<text transform="matrix(0 1.1797 -1 0 677.3652 69.1709)" fill="none" stroke="#020202" stroke-width="2" font-family="'ArialMT'" font-size="4.1263"> </text>
	<polygon fill="#909090" stroke="#020202" stroke-width="2" stroke-miterlimit="10" points="670.131,62.275 675.979,62.275 
		670.131,76.074 675.979,76.074 670.131,62.275 	"/>
	
		<polygon fill="#9B9B9B" stroke="#020202" stroke-width="2" stroke-linecap="round" stroke-linejoin="round" stroke-miterlimit="10" points="
		670.131,62.275 675.979,62.275 670.131,76.074 675.979,76.074 670.131,62.275 	"/>
</g>
<polyline fill="#7D7D7D" stroke="#000000" stroke-width="2" stroke-miterlimit="10" points="678.291,249.476 678.291,221.041 
	647.021,221.041 647.021,250.168 "/>
<circle fill="#7D7D7D" stroke="#000000" stroke-width="2" stroke-miterlimit="10" cx="662.669" cy="250.652" r="15.634"/>
<line fill="none" stroke="#000000" stroke-width="2" stroke-miterlimit="10" x1="662.67" y1="266.286" x2="662.67" y2="250.652"/>
<line fill="none" stroke="#000000" stroke-width="2" stroke-miterlimit="10" x1="662.655" y1="250.736" x2="675.493" y2="241.706"/>
<line fill="none" stroke="#000000" stroke-width="2" stroke-miterlimit="10" x1="662.655" y1="250.736" x2="649.846" y2="241.706"/>
<circle fill="#FFFFFF" stroke="#000000" stroke-width="2" stroke-miterlimit="10" cx="662.67" cy="250.652" r="1.502"/>
<polyline fill="#7D7D7D" stroke="#000000" stroke-width="2" stroke-miterlimit="10" points="578.976,247.464 578.976,219.025 
	547.707,219.025 547.707,248.156 "/>
<circle fill="#7D7D7D" stroke="#000000" stroke-width="2" stroke-miterlimit="10" cx="563.355" cy="248.638" r="15.634"/>
<line fill="none" stroke="#000000" stroke-width="2" stroke-miterlimit="10" x1="563.355" y1="264.273" x2="563.354" y2="248.638"/>
<line fill="none" stroke="#000000" stroke-width="2" stroke-miterlimit="10" x1="563.341" y1="248.724" x2="576.179" y2="239.693"/>
<line fill="none" stroke="#000000" stroke-width="2" stroke-miterlimit="10" x1="563.341" y1="248.724" x2="550.529" y2="239.693"/>
<circle fill="#FFFFFF" stroke="#000000" stroke-width="2" stroke-miterlimit="10" cx="563.354" cy="248.638" r="1.503"/>
<polyline fill="#7D7D7D" stroke="#000000" stroke-width="2" stroke-miterlimit="10" points="479.214,247.578 479.214,219.14 
	447.946,219.14 447.946,248.269 "/>
<circle fill="#7D7D7D" stroke="#000000" stroke-width="2" stroke-miterlimit="10" cx="463.594" cy="248.751" r="15.634"/>
<line fill="none" stroke="#000000" stroke-width="2" stroke-miterlimit="10" x1="463.594" y1="264.387" x2="463.593" y2="248.751"/>
<line fill="none" stroke="#000000" stroke-width="2" stroke-miterlimit="10" x1="463.579" y1="248.837" x2="476.419" y2="239.806"/>
<line fill="none" stroke="#000000" stroke-width="2" stroke-miterlimit="10" x1="463.579" y1="248.837" x2="450.769" y2="239.806"/>
<circle fill="#FFFFFF" stroke="#000000" stroke-width="2" stroke-miterlimit="10" cx="463.594" cy="248.751" r="1.503"/>
<g>
	<polygon fill="#909090" stroke="#020202" stroke-width="2" stroke-miterlimit="10" points="644.435,340.852 644.435,335.332 
		649.114,335.332 649.114,340.852 	"/>
	
		<polygon fill="#909090" stroke="#020202" stroke-width="2" stroke-linecap="round" stroke-linejoin="round" stroke-miterlimit="10" points="
		649.114,340.852 649.114,335.332 644.435,335.332 644.435,340.852 649.114,340.852 	"/>
	
		<line fill="none" stroke="#020202" stroke-width="2" stroke-linecap="round" stroke-linejoin="round" stroke-miterlimit="10" x1="649.114" y1="338.092" x2="652.332" y2="338.092"/>
	
		<text transform="matrix(1.031318e-007 -1.1797 1 8.742278e-008 648.0195 338.0977)" fill="#909090" font-family="'ArialMT'" font-size="4.1263"> </text>
	
		<text transform="matrix(1.031318e-007 -1.1797 1 8.742278e-008 648.0195 338.0977)" fill="none" stroke="#020202" stroke-width="2" font-family="'ArialMT'" font-size="4.1263"> </text>
	<polygon fill="#909090" stroke="#020202" stroke-width="2" stroke-miterlimit="10" points="655.255,344.99 649.405,344.99 
		655.255,331.191 649.405,331.191 655.255,344.99 	"/>
	
		<polygon fill="#9B9B9B" stroke="#020202" stroke-width="2" stroke-linecap="round" stroke-linejoin="round" stroke-miterlimit="10" points="
		655.255,344.99 649.405,344.99 655.255,331.191 649.405,331.191 655.255,344.99 	"/>
</g>
<g>
	<polygon fill="#909090" stroke="#020202" stroke-width="2" stroke-miterlimit="10" points="544.063,340.848 544.063,335.328 
		548.742,335.328 548.742,340.848 	"/>
	
		<polygon fill="#909090" stroke="#020202" stroke-width="2" stroke-linecap="round" stroke-linejoin="round" stroke-miterlimit="10" points="
		548.742,340.848 548.742,335.328 544.063,335.328 544.063,340.848 548.742,340.848 	"/>
	
		<line fill="none" stroke="#020202" stroke-width="2" stroke-linecap="round" stroke-linejoin="round" stroke-miterlimit="10" x1="548.742" y1="338.086" x2="551.958" y2="338.086"/>
	
		<text transform="matrix(1.031318e-007 -1.1797 1 8.742278e-008 547.6475 338.0918)" fill="#909090" font-family="'ArialMT'" font-size="4.1263"> </text>
	
		<text transform="matrix(1.031318e-007 -1.1797 1 8.742278e-008 547.6475 338.0918)" fill="none" stroke="#020202" stroke-width="2" font-family="'ArialMT'" font-size="4.1263"> </text>
	<polygon fill="#909090" stroke="#020202" stroke-width="2" stroke-miterlimit="10" points="554.883,344.986 549.034,344.986 
		554.883,331.188 549.034,331.188 554.883,344.986 	"/>
	
		<polygon fill="#9B9B9B" stroke="#020202" stroke-width="2" stroke-linecap="round" stroke-linejoin="round" stroke-miterlimit="10" points="
		554.883,344.986 549.034,344.986 554.883,331.188 549.034,331.188 554.883,344.986 	"/>
</g>
<g>
	<polygon fill="#909090" stroke="#020202" stroke-width="2" stroke-miterlimit="10" points="444.302,340.85 444.302,335.33 
		448.981,335.33 448.981,340.85 	"/>
	
		<polygon fill="#909090" stroke="#020202" stroke-width="2" stroke-linecap="round" stroke-linejoin="round" stroke-miterlimit="10" points="
		448.981,340.85 448.981,335.33 444.302,335.33 444.302,340.85 448.981,340.85 	"/>
	
		<line fill="none" stroke="#020202" stroke-width="2" stroke-linecap="round" stroke-linejoin="round" stroke-miterlimit="10" x1="448.981" y1="338.09" x2="452.198" y2="338.09"/>
	
		<text transform="matrix(1.031318e-007 -1.1797 1 8.742278e-008 447.8877 338.0957)" fill="#909090" font-family="'ArialMT'" font-size="4.1263"> </text>
	
		<text transform="matrix(1.031318e-007 -1.1797 1 8.742278e-008 447.8877 338.0957)" fill="none" stroke="#020202" stroke-width="2" font-family="'ArialMT'" font-size="4.1263"> </text>
	<polygon fill="#909090" stroke="#020202" stroke-width="2" stroke-miterlimit="10" points="455.123,344.988 449.274,344.988 
		455.123,331.191 449.274,331.191 455.123,344.988 	"/>
	
		<polygon fill="#9B9B9B" stroke="#020202" stroke-width="2" stroke-linecap="round" stroke-linejoin="round" stroke-miterlimit="10" points="
		455.123,344.988 449.274,344.988 455.123,331.191 449.274,331.191 455.123,344.988 	"/>
</g>
<polyline fill="#7D7D7D" stroke="#000000" stroke-width="2" stroke-miterlimit="10" points="378.125,248.48 378.125,220.042 
	346.855,220.042 346.855,249.171 "/>
<circle fill="#7D7D7D" stroke="#000000" stroke-width="2" stroke-miterlimit="10" cx="362.504" cy="249.654" r="15.634"/>
<line fill="none" stroke="#000000" stroke-width="2" stroke-miterlimit="10" x1="362.504" y1="265.29" x2="362.503" y2="249.654"/>
<line fill="none" stroke="#000000" stroke-width="2" stroke-miterlimit="10" x1="362.49" y1="249.74" x2="375.328" y2="240.708"/>
<line fill="none" stroke="#000000" stroke-width="2" stroke-miterlimit="10" x1="362.49" y1="249.74" x2="349.679" y2="240.708"/>
<circle fill="#FFFFFF" stroke="#000000" stroke-width="2" stroke-miterlimit="10" cx="362.504" cy="249.654" r="1.503"/>
<polyline fill="#7D7D7D" stroke="#000000" stroke-width="2" stroke-miterlimit="10" points="278.363,248.594 278.363,220.156 
	247.095,220.156 247.095,249.285 "/>
<circle fill="#7D7D7D" stroke="#000000" stroke-width="2" stroke-miterlimit="10" cx="262.743" cy="249.768" r="15.634"/>
<line fill="none" stroke="#000000" stroke-width="2" stroke-miterlimit="10" x1="262.743" y1="265.404" x2="262.742" y2="249.768"/>
<line fill="none" stroke="#000000" stroke-width="2" stroke-miterlimit="10" x1="262.728" y1="249.853" x2="275.568" y2="240.824"/>
<line fill="none" stroke="#000000" stroke-width="2" stroke-miterlimit="10" x1="262.728" y1="249.853" x2="249.917" y2="240.824"/>
<circle fill="#FFFFFF" stroke="#000000" stroke-width="2" stroke-miterlimit="10" cx="262.743" cy="249.768" r="1.503"/>
<g>
	<polygon fill="#909090" stroke="#020202" stroke-width="2" stroke-miterlimit="10" points="343.211,341.863 343.211,336.344 
		347.891,336.344 347.891,341.863 	"/>
	
		<polygon fill="#909090" stroke="#020202" stroke-width="2" stroke-linecap="round" stroke-linejoin="round" stroke-miterlimit="10" points="
		347.891,341.863 347.891,336.344 343.211,336.344 343.211,341.863 347.891,341.863 	"/>
	
		<line fill="none" stroke="#020202" stroke-width="2" stroke-linecap="round" stroke-linejoin="round" stroke-miterlimit="10" x1="347.891" y1="339.104" x2="351.107" y2="339.104"/>
	
		<text transform="matrix(1.031318e-007 -1.1797 1 8.742278e-008 346.7979 339.1094)" fill="#909090" font-family="'ArialMT'" font-size="4.1263"> </text>
	
		<text transform="matrix(1.031318e-007 -1.1797 1 8.742278e-008 346.7979 339.1094)" fill="none" stroke="#020202" stroke-width="2" font-family="'ArialMT'" font-size="4.1263"> </text>
	<polygon fill="#909090" stroke="#020202" stroke-width="2" stroke-miterlimit="10" points="354.032,346.002 348.183,346.002 
		354.032,332.205 348.183,332.205 354.032,346.002 	"/>
	
		<polygon fill="#9B9B9B" stroke="#020202" stroke-width="2" stroke-linecap="round" stroke-linejoin="round" stroke-miterlimit="10" points="
		354.032,346.002 348.183,346.002 354.032,332.205 348.183,332.205 354.032,346.002 	"/>
</g>
<g>
	<polygon fill="#909090" stroke="#020202" stroke-width="2" stroke-miterlimit="10" points="243.451,341.865 243.451,336.346 
		248.13,336.346 248.13,341.865 	"/>
	
		<polygon fill="#909090" stroke="#020202" stroke-width="2" stroke-linecap="round" stroke-linejoin="round" stroke-miterlimit="10" points="
		248.13,341.865 248.13,336.346 243.451,336.346 243.451,341.865 248.13,341.865 	"/>
	
		<line fill="none" stroke="#020202" stroke-width="2" stroke-linecap="round" stroke-linejoin="round" stroke-miterlimit="10" x1="248.13" y1="339.105" x2="251.347" y2="339.105"/>
	
		<text transform="matrix(1.031318e-007 -1.1797 1 8.742278e-008 247.0381 339.1133)" fill="#909090" font-family="'ArialMT'" font-size="4.1263"> </text>
	
		<text transform="matrix(1.031318e-007 -1.1797 1 8.742278e-008 247.0381 339.1133)" fill="none" stroke="#020202" stroke-width="2" font-family="'ArialMT'" font-size="4.1263"> </text>
	<polygon fill="#909090" stroke="#020202" stroke-width="2" stroke-miterlimit="10" points="254.271,346.006 248.423,346.006 
		254.271,332.207 248.423,332.207 254.271,346.006 	"/>
	
		<polygon fill="#9B9B9B" stroke="#020202" stroke-width="2" stroke-linecap="round" stroke-linejoin="round" stroke-miterlimit="10" points="
		254.271,346.006 248.423,346.006 254.271,332.207 248.423,332.207 254.271,346.006 	"/>
</g>
<polygon fill="#FEE000" stroke="#000000" stroke-width="2" stroke-miterlimit="10" points="40.8,87.837 85.477,87.837 
	105.113,93.707 87.279,101.507 40.8,101.507 "/>
<text transform="matrix(1.1384 0 0 1 38.2998 84.1367)" font-family="'MyriadPro-Regular'" font-size="14.6284">CoEx02</text>
<polyline fill="none" stroke="#000000" stroke-width="3" stroke-miterlimit="10" points="105.113,93.707 185.406,93.707 
	185.406,49.787 673.199,49.787 673.199,62.269 "/>
<polygon fill="#FEE000" stroke="#000000" stroke-width="2" stroke-miterlimit="10" points="40.8,43.917 85.477,43.917 
	105.113,49.787 87.279,57.586 40.8,57.586 "/>
<text transform="matrix(1.1384 0 0 1 37.4668 39.8833)" font-family="'MyriadPro-Regular'" font-size="14.6284">CoEx02</text>
<path fill="none" stroke="#000000" stroke-width="3" stroke-miterlimit="10" d="M105.113,49.787"/>
<line fill="none" stroke="#000000" stroke-width="3" stroke-miterlimit="10" x1="273.199" y1="76.074" x2="273.199" y2="145.27"/>
<line fill="none" stroke="#000000" stroke-width="3" stroke-miterlimit="10" x1="273.199" y1="62.269" x2="273.199" y2="49.787"/>
<line fill="none" stroke="#000000" stroke-width="3" stroke-miterlimit="10" x1="373.199" y1="76.074" x2="373.199" y2="145.27"/>
<line fill="none" stroke="#000000" stroke-width="3" stroke-miterlimit="10" x1="373.199" y1="63.269" x2="373.199" y2="50.787"/>
<line fill="none" stroke="#000000" stroke-width="3" stroke-miterlimit="10" x1="472.922" y1="75.816" x2="472.922" y2="145.013"/>
<line fill="none" stroke="#000000" stroke-width="3" stroke-miterlimit="10" x1="472.921" y1="62.011" x2="472.921" y2="49.53"/>
<line fill="none" stroke="#000000" stroke-width="3" stroke-miterlimit="10" x1="572.682" y1="76.074" x2="572.682" y2="145.27"/>
<line fill="none" stroke="#000000" stroke-width="3" stroke-miterlimit="10" x1="572.682" y1="62.269" x2="572.682" y2="49.787"/>
<line fill="none" stroke="#000000" stroke-width="3" stroke-miterlimit="10" x1="673.199" y1="76.074" x2="673.199" y2="148.076"/>
<line fill="none" stroke="#000000" stroke-width="3" stroke-miterlimit="10" x1="250.819" y1="361.648" x2="250.819" y2="344.928"/>
<polyline fill="none" stroke="#000000" stroke-width="3" stroke-miterlimit="10" points="229.406,49.787 229.406,361.648 
	652.33,361.652 652.33,345.871 "/>
<line fill="none" stroke="#000000" stroke-width="3" stroke-miterlimit="10" x1="251.347" y1="331.188" x2="251.347" y2="260.466"/>
<line fill="none" stroke="#000000" stroke-width="3" stroke-miterlimit="10" x1="351.107" y1="331.188" x2="351.107" y2="260.466"/>
<line fill="none" stroke="#000000" stroke-width="3" stroke-miterlimit="10" x1="351.107" y1="346.006" x2="351.107" y2="361.787"/>
<line fill="none" stroke="#000000" stroke-width="3" stroke-miterlimit="10" x1="452.197" y1="330.438" x2="452.197" y2="259.716"/>
<line fill="none" stroke="#000000" stroke-width="3" stroke-miterlimit="10" x1="452.198" y1="345.256" x2="452.198" y2="362.787"/>
<line fill="none" stroke="#000000" stroke-width="3" stroke-miterlimit="10" x1="551.958" y1="331.188" x2="551.958" y2="259.335"/>
<line fill="none" stroke="#000000" stroke-width="3" stroke-miterlimit="10" x1="551.959" y1="346.006" x2="551.959" y2="361.787"/>
<line fill="none" stroke="#000000" stroke-width="3" stroke-miterlimit="10" x1="652.33" y1="331.055" x2="652.33" y2="261.787"/>
<circle fill="#818184" stroke="#000000" stroke-width="2" stroke-miterlimit="10" cx="588.588" cy="550.919" r="12.859"/>
<polyline fill="#818184" stroke="#000000" stroke-width="2" stroke-miterlimit="10" points="581.77,561.822 574.036,568.682 
	603.141,568.682 595.408,561.822 "/>
<polyline fill="#818184" stroke="#000000" stroke-width="2" stroke-miterlimit="10" points="588.587,538.061 613.33,538.061 
	613.33,546.559 600.689,546.559 "/>
<circle fill="#818184" stroke="#000000" stroke-width="2" stroke-miterlimit="10" cx="588.588" cy="550.919" r="9.515"/>
<circle fill="#818184" stroke="#000000" stroke-width="2" stroke-miterlimit="10" cx="586.895" cy="552.479" r="12.86"/>
<polyline fill="#818184" stroke="#000000" stroke-width="2" stroke-miterlimit="10" points="580.077,563.383 572.343,570.242 
	601.447,570.242 593.715,563.383 "/>
<polyline fill="#818184" stroke="#000000" stroke-width="2" stroke-miterlimit="10" points="586.895,539.621 611.637,539.621 
	611.637,548.119 598.996,548.119 "/>
<circle fill="#ED1C24" stroke="#000000" stroke-width="2" stroke-miterlimit="10" cx="586.895" cy="552.479" r="9.516"/>
<line fill="none" stroke="#000000" stroke-width="2" stroke-miterlimit="10" x1="601.447" y1="570.242" x2="603.225" y2="568.682"/>
<polyline fill="none" stroke="#A41E21" stroke-width="2" stroke-miterlimit="10" points="262.562,181.453 262.562,193.121 
	362.337,193.121 564.857,193.121 564.857,181.453 "/>
<line fill="none" stroke="#A41E21" stroke-width="2" stroke-miterlimit="10" x1="362.504" y1="181.453" x2="362.504" y2="193.121"/>
<line fill="none" stroke="#A41E21" stroke-width="2" stroke-miterlimit="10" x1="462.597" y1="181.453" x2="462.597" y2="193.121"/>
<polyline fill="none" stroke="#A41E21" stroke-width="2" stroke-miterlimit="10" points="564.355,223.859 564.355,212.192 
	464.58,212.192 262.06,212.192 262.06,223.859 "/>
<line fill="none" stroke="#A41E21" stroke-width="2" stroke-miterlimit="10" x1="464.413" y1="223.859" x2="464.413" y2="212.192"/>
<line fill="none" stroke="#A41E21" stroke-width="2" stroke-miterlimit="10" x1="364.32" y1="223.859" x2="364.32" y2="212.192"/>
<polyline fill="none" stroke="#A41E21" stroke-width="2" stroke-miterlimit="10" points="660.909,181.435 660.909,193.101 
	760.685,193.101 "/>
<path fill="none" stroke="#A41E21" stroke-width="2" stroke-miterlimit="10" d="M760.852,194.101"/>
<path fill="none" stroke="#A41E21" stroke-width="2" stroke-miterlimit="10" d="M826.945,196.101"/>
<polyline fill="none" stroke="#A41E21" stroke-width="2" stroke-miterlimit="10" points="660.407,223.84 660.407,212.173 
	762.668,212.173 "/>
<g>
	
		<polyline fill="none" stroke="#A41E21" stroke-width="2" stroke-linecap="round" stroke-linejoin="round" stroke-miterlimit="10" points="
		721.668,212.173 762.25,212.064 762.25,127.228 819.652,127.228 819.652,168.548 	"/>
	<polygon fill="#A41E21" stroke="#A41E21" stroke-width="2" stroke-miterlimit="10" points="823.709,168.292 819.652,174.038 
		815.596,168.292 823.709,168.292 	"/>
</g>
<polyline fill="none" stroke="#FFCE06" stroke-width="2" stroke-miterlimit="10" points="252.562,177.453 252.562,189.121 
	352.337,189.121 554.857,189.121 554.857,177.453 "/>
<line fill="none" stroke="#FFCE06" stroke-width="2" stroke-miterlimit="10" x1="352.504" y1="177.453" x2="352.504" y2="189.121"/>
<line fill="none" stroke="#FFCE06" stroke-width="2" stroke-miterlimit="10" x1="452.597" y1="177.453" x2="452.597" y2="189.121"/>
<polyline fill="none" stroke="#FFCE06" stroke-width="2" stroke-miterlimit="10" points="554.355,219.859 554.355,208.192 
	454.58,208.192 252.06,208.192 252.06,219.859 "/>
<line fill="none" stroke="#FFCE06" stroke-width="2" stroke-miterlimit="10" x1="454.413" y1="219.859" x2="454.413" y2="208.192"/>
<line fill="none" stroke="#FFCE06" stroke-width="2" stroke-miterlimit="10" x1="354.32" y1="219.859" x2="354.32" y2="208.192"/>
<g>
	
		<line fill="none" stroke="#FFCE06" stroke-width="2" stroke-linecap="round" stroke-linejoin="round" stroke-miterlimit="10" x1="435.497" y1="399.078" x2="435.497" y2="189.955"/>
	<polygon fill="#FFCE06" stroke="#FFCE06" stroke-width="2" stroke-miterlimit="10" points="439.553,400.404 435.497,411.527 
		431.441,400.404 439.553,400.404 	"/>
</g>
<path fill="none" stroke="#FFCE06" stroke-width="2" stroke-miterlimit="10" d="M750.852,190.101"/>
<path fill="none" stroke="#FFCE06" stroke-width="2" stroke-miterlimit="10" d="M752.668,207.287"/>
<path fill="#FFCE06" stroke="#FFCE06" stroke-width="2" stroke-miterlimit="10" d="M650.407,225.906"/>
<g>
	
		<line fill="none" stroke="#FFCE06" stroke-width="2" stroke-linecap="round" stroke-linejoin="round" stroke-miterlimit="10" x1="570.43" y1="509.115" x2="441.167" y2="509.115"/>
	<polygon fill="#FFCE06" stroke="#FFCE06" stroke-width="2" stroke-miterlimit="10" points="570.775,505.059 573.661,509.115 
		570.775,513.172 570.775,505.059 	"/>
</g>
<g>
	
		<polyline fill="none" stroke="#FFCE06" stroke-width="2" stroke-linecap="round" stroke-linejoin="round" stroke-miterlimit="10" points="
		439.553,472.209 439.553,552.436 568.816,552.436 	"/>
	<polygon fill="#FFCE06" stroke="#FFCE06" stroke-width="2" stroke-miterlimit="10" points="569.16,548.379 572.045,552.436 
		569.16,556.492 569.16,548.379 	"/>
</g>
<polyline fill="none" stroke="#FFCE06" stroke-width="2" stroke-linecap="round" stroke-linejoin="round" stroke-miterlimit="10" points="
	616.904,497.896 1071.74,497.896 1071.74,449.688 1111.563,449.688 "/>
<polygon fill="#EC2327" stroke="#000000" stroke-width="2" stroke-miterlimit="10" points="1111.503,441.74 1156.18,441.74 
	1175.814,447.609 1157.98,455.41 1111.503,455.41 "/>
<text transform="matrix(1.1384 0 0 1 1114.0723 437.0391)" font-family="'MyriadPro-Regular'" font-size="14.6284">FiFx34-3</text>
<polygon fill="#EC2327" stroke="#000000" stroke-width="2" stroke-miterlimit="10" points="1111.501,386.906 1156.178,386.906 
	1175.813,392.775 1157.979,400.576 1111.501,400.576 "/>
<text transform="matrix(1.1384 0 0 1 1114.0723 382.3721)" font-family="'MyriadPro-Regular'" font-size="14.6284">TkCoEx02</text>
<polygon fill="#EC2327" stroke="#000000" stroke-width="2" stroke-miterlimit="10" points="1111.407,344.25 1156.084,344.25 
	1175.719,350.119 1157.885,357.92 1111.407,357.92 "/>
<text transform="matrix(1.1384 0 0 1 1114.0723 338.0908)" font-family="'MyriadPro-Regular'" font-size="14.6284">Belt press</text>
<text transform="matrix(0.8817 0 0 1 283.4058 172.3574)" font-family="'MyriadPro-Regular'" font-size="13.0781">CoEx3-01</text>
<text transform="matrix(0.7883 0 0 1 384.4053 172.0503)" font-family="'MyriadPro-Regular'" font-size="14.3049">CoEx3-02</text>
<text transform="matrix(0.926 0 0 1 484.4063 172.7432)" font-family="'MyriadPro-Regular'" font-size="11.5336">CoEx3-03</text>
<text transform="matrix(0.8163 0 0 1 583.7388 171.5508)" font-family="'MyriadPro-Regular'" font-size="12.7718">CoEx3-04</text>
<text transform="matrix(1 0 0 1 684.7393 170.2441)" font-family="'MyriadPro-Regular'" font-size="10">CoEx3-05</text>
<text transform="matrix(0.9089 0 0 1 285.0249 234.5762)" font-family="'MyriadPro-Regular'" font-size="13.0608">CoEx3-06</text>
<text transform="matrix(0.9498 0 0 1 386.0249 234.8066)" font-family="'MyriadPro-Regular'" font-size="12.1409">CoEx3-07</text>
<text transform="matrix(0.8974 0 0 1 486.0239 234.6533)" font-family="'MyriadPro-Regular'" font-size="12.754">CoEx3-08</text>
<text transform="matrix(0.7808 0 0 1 585.3574 233.5391)" font-family="'MyriadPro-Regular'" font-size="13.6798">CoEx3-09</text>
<text transform="matrix(1 0 0 1 686.3574 234.459)" font-family="'MyriadPro-Regular'" font-size="10">CoEx3-10</text>
<text transform="matrix(0.7762 0 0 1 418.1938 448.0615)" font-family="'MyriadPro-Regular'" font-size="13.2124">TkCoEx-03</text>
<text transform="matrix(0.8098 0 0 1 606.7168 521.2217)" font-family="'MyriadPro-Regular'" font-size="10.6637">CoEX-03-PUMP01</text>
<text transform="matrix(0.8828 0 0 1 602.3359 563.3828)" font-family="'MyriadPro-Regular'" font-size="10.7598">CoEX-03-PUMP02</text>
<path fill="none" stroke="#FFCE06" stroke-width="2" stroke-miterlimit="10" d="M554.857,189.121"/>
<path fill="none" stroke="#FFCE06" stroke-width="2" stroke-miterlimit="10" d="M554.355,208.192"/>
<polygon fill="#EC2327" stroke="#000000" stroke-width="2" stroke-miterlimit="10" points="1111.407,491.061 1156.084,491.061 
	1175.719,496.93 1157.885,504.73 1111.407,504.73 "/>
<text transform="matrix(1.1384 0 0 1 1114.0723 487.8594)" font-family="'MyriadPro-Regular'" font-size="14.6284">FiFx34-4</text>
<line fill="none" stroke="#FFCE06" stroke-width="2" stroke-linecap="round" stroke-linejoin="round" stroke-miterlimit="10" x1="1111.503" y1="497.895" x2="1058.906" y2="497.895"/>
<polygon fill="#BCB8B8" stroke="#000000" stroke-width="3" stroke-miterlimit="10" points="932.172,220.651 793.925,221.074 
	793.925,189.914 931.497,190.99 "/>
<line fill="none" stroke="#000000" stroke-width="3" stroke-miterlimit="10" x1="793.925" y1="201.881" x2="932.201" y2="198.909"/>
<path fill="#51514F" stroke="#000000" stroke-width="3" stroke-miterlimit="10" d="M804.689,196.353c0,0,0.758-9.686,2.613-3.706
	c1.499,4.824-0.545,12.176,0.76,6.219c1.304-5.957-1.516,13.103-5.373,9.475c0,0-2.816-4.444,1.243-8.152"/>
<path fill="#51514F" stroke="#000000" stroke-width="3" stroke-miterlimit="10" d="M812.64,196.202c0,0,0.759-9.688,2.613-3.708
	c0.646,2.076,0.305,8.293,0.758,6.222c1.306-5.957-1.514,13.1-5.372,9.472c0,0-2.817-4.444,1.242-8.149"/>
<path fill="#51514F" stroke="#000000" stroke-width="3" stroke-miterlimit="10" d="M820.767,196.739c0,0,0.761-9.688,2.614-3.706
	c1.5,4.826-0.546,12.176,0.758,6.219c2.513-11.453-2.725,11.964-5.372,9.475c0,0-2.817-4.444,1.244-8.15"/>
<path fill="#51514F" stroke="#000000" stroke-width="3" stroke-miterlimit="10" d="M828.717,196.587c0,0,0.757-9.687,2.612-3.704
	c1.5,4.824-0.546,12.173,0.759,6.219c2.521-11.448-2.735,11.952-5.373,9.474c0,0-2.815-4.446,1.244-8.15"/>
<path fill="#51514F" stroke="#000000" stroke-width="3" stroke-miterlimit="10" d="M836.479,195.85c0,0,0.756-9.684,2.612-3.704
	c1.496,4.825-0.546,12.176,0.758,6.22c2.522-11.445-2.734,11.954-5.373,9.474c0,0-2.818-4.444,1.244-8.151"/>
<path fill="#51514F" stroke="#000000" stroke-width="3" stroke-miterlimit="10" d="M844.425,195.699c0,0,0.759-9.684,2.615-3.705
	c1.498,4.824-0.547,12.175,0.758,6.221c2.524-11.444-2.739,11.95-5.374,9.474c0,0-2.818-4.444,1.245-8.15"/>
<path fill="#51514F" stroke="#000000" stroke-width="3" stroke-miterlimit="10" d="M852.552,196.238c0,0,0.761-9.688,2.615-3.707
	c1.5,4.827-0.547,12.178,0.759,6.222c2.534-11.444-2.745,11.946-5.374,9.475c0,0-2.815-4.447,1.244-8.152"/>
<path fill="#51514F" stroke="#000000" stroke-width="3" stroke-miterlimit="10" d="M860.501,196.087c0,0,0.758-9.687,2.615-3.705
	c1.498,4.825-0.547,12.176,0.757,6.219s-1.514,13.104-5.372,9.475c0,0-2.817-4.445,1.243-8.149"/>
<path fill="#51514F" stroke="#000000" stroke-width="3" stroke-miterlimit="10" d="M868.729,197.303c0,0,0.759-9.685,2.614-3.705
	c1.499,4.823-0.547,12.176,0.758,6.219c2.499-11.467-2.711,11.976-5.374,9.474c0,0-2.814-4.444,1.245-8.15"/>
<path fill="#51514F" stroke="#000000" stroke-width="3" stroke-miterlimit="10" d="M876.68,197.152c0,0,0.756-9.686,2.614-3.707
	c1.497,4.825-0.548,12.176,0.756,6.221c1.306-5.957-1.513,13.102-5.372,9.475c0,0-2.815-4.446,1.242-8.153"/>
<path fill="#51514F" stroke="#000000" stroke-width="3" stroke-miterlimit="10" d="M884.808,197.689c0,0,0.759-9.685,2.614-3.705
	c1.497,4.823-0.546,12.177,0.756,6.221c1.306-5.956-1.515,13.103-5.372,9.476c0,0-2.816-4.446,1.244-8.152"/>
<path fill="#51514F" stroke="#000000" stroke-width="3" stroke-miterlimit="10" d="M892.757,197.539c0,0,0.756-9.687,2.614-3.707
	c1.496,4.825-0.548,12.176,0.757,6.22c1.304-5.954-1.515,13.104-5.373,9.475c0,0-2.816-4.446,1.243-8.151"/>
<path fill="#51514F" stroke="#000000" stroke-width="3" stroke-miterlimit="10" d="M900.515,196.802c0,0,0.759-9.686,2.615-3.705
	c1.498,4.825-0.547,12.176,0.757,6.22c1.306-5.955-1.515,13.104-5.374,9.476c0,0-2.814-4.444,1.245-8.151"/>
<path fill="#51514F" stroke="#000000" stroke-width="3" stroke-miterlimit="10" d="M908.466,196.65c0,0,0.756-9.685,2.613-3.705
	c1.498,4.825-0.546,12.175,0.757,6.22c1.304-5.956-1.516,13.103-5.373,9.475c0,0-2.814-4.445,1.243-8.151"/>
<path fill="#51514F" stroke="#000000" stroke-width="3" stroke-miterlimit="10" d="M916.594,197.19c0,0,0.755-9.687,2.614-3.707
	c1.497,4.825-0.547,12.176,0.758,6.222c1.302-5.958-1.516,13.103-5.374,9.475c0,0-2.815-4.446,1.241-8.154"/>
<polygon fill="none" stroke="#000000" stroke-width="3" stroke-miterlimit="10" points="793.925,189.914 931.497,190.99 
	931.497,221.004 793.925,221.074 "/>
<line fill="none" stroke="#000000" stroke-width="3" stroke-miterlimit="10" x1="931.497" y1="214.291" x2="794.902" y2="213.829"/>
<circle fill="#6BBD45" stroke="#000000" stroke-width="5" stroke-miterlimit="10" cx="948.509" cy="208.494" r="10.858"/>
<circle fill="#6BBD45" stroke="#000000" stroke-width="5" stroke-miterlimit="10" cx="1052.252" cy="208.494" r="10.858"/>
<line fill="none" stroke="#000000" stroke-width="5" stroke-miterlimit="10" x1="948.509" y1="197.635" x2="1052.252" y2="197.635"/>
<line fill="none" stroke="#000000" stroke-width="5" stroke-miterlimit="10" x1="948.509" y1="219.352" x2="1052.252" y2="219.352"/>
<polyline fill="none" stroke="#000000" stroke-width="3" stroke-miterlimit="10" points="806.464,168.262 813.213,175.869 
	813.213,189.606 825.146,189.606 825.146,175.869 832.84,168.335 "/>
<line fill="none" stroke="#A41E21" stroke-width="2" stroke-miterlimit="10" x1="660.407" y1="212.173" x2="564.857" y2="212.064"/>
<line fill="none" stroke="#A41E21" stroke-width="2" stroke-miterlimit="10" x1="564.857" y1="193.121" x2="660.909" y2="193.121"/>
<path fill="none" stroke="#A41E21" stroke-width="2" stroke-linecap="round" stroke-linejoin="round" stroke-miterlimit="10" d="
	M760.685,193.121"/>
<polyline fill="none" stroke="#A41E21" stroke-width="2" stroke-miterlimit="10" points="1063.11,208.494 1094.334,208.494 
	1094.334,351.086 1111.502,351.086 "/>
<polyline fill="none" stroke="#FFCE06" stroke-width="2" stroke-miterlimit="10" points="554.857,189.121 652.332,189.955 
	652.332,178.289 "/>
<line fill="none" stroke="#A41E21" stroke-width="2" stroke-miterlimit="10" x1="760.685" y1="193.121" x2="762.66" y2="193.121"/>
<polyline fill="none" stroke="#FFCE06" stroke-width="2" stroke-miterlimit="10" points="554.355,208.192 652.332,208.192 
	652.332,221.041 "/>
<polyline fill="none" stroke="#FFCE06" stroke-width="2" stroke-linecap="round" stroke-linejoin="round" stroke-miterlimit="10" points="
	1111.406,393.74 1055.033,393.74 1055.033,543.87 613.33,543.87 "/>
<line fill="none" stroke="#000000" stroke-width="3" stroke-miterlimit="10" x1="105.113" y1="49.787" x2="185.406" y2="49.787"/>
<text transform="matrix(1 0 0 1 828.5234 235.0166)" font-family="'MyriadPro-Regular'" font-size="10">Screw conveyor</text>
<text transform="matrix(1 0 0 1 963.6904 234.459)" font-family="'MyriadPro-Regular'" font-size="10">Scraper convayor</text>
<g>
	<rect x="0.801" y="382.372" fill="#CDEA8C" stroke="#231F1F" stroke-miterlimit="10" width="353.519" height="196.808"/>
	<line fill="#CDEA8C" stroke="#231F1F" stroke-miterlimit="10" x1="0.801" y1="422.46" x2="354.32" y2="422.46"/>
	<line fill="#CDEA8C" stroke="#231F1F" stroke-miterlimit="10" x1="0.801" y1="461.638" x2="354.32" y2="461.638"/>
	<line fill="#CDEA8C" stroke="#231F1F" stroke-miterlimit="10" x1="0.801" y1="498.99" x2="354.32" y2="498.99"/>
	<line fill="#CDEA8C" stroke="#231F1F" stroke-miterlimit="10" x1="0.801" y1="540.94" x2="354.32" y2="540.94"/>
	<line fill="#CDEA8C" stroke="#231F1F" stroke-miterlimit="10" x1="177.561" y1="579.18" x2="177.561" y2="382.372"/>
</g>
<text transform="matrix(1.0904 0 0 1 72.1182 411.0732)" font-family="'MyriadPro-Regular'" font-size="16.0337">Yield</text>
<text transform="matrix(1.0904 0 0 1 75.0322 452.0068)" font-family="'MyriadPro-Regular'" font-size="16.0337">EMF</text>
<text transform="matrix(1.0904 0 0 1 218.7852 411.4902)" font-family="'MyriadPro-Regular'" font-size="16.0337">YieldCex03</text>
<text transform="matrix(1.0904 0 0 1 222.9131 452.0068)" font-family="'MyriadPro-Regular'" font-size="16.0337">EMFCex03</text>
<text transform="matrix(0.9913 0 0 1 904.5508 392.291)" font-family="'MyriadPro-Regular'" font-size="20.3302">PH:</text>
<rect x="899.835" y="375.509" fill="#B1C9DD" stroke="#0D1216" stroke-miterlimit="10" width="117.814" height="22.794"/>
<text transform="matrix(1.0087 0 0 1 916.9639 393.7402)" font-family="'MyriadPro-Regular'" font-size="15.9711" id="PHCex3">      PHCex3</text>
<text transform="matrix(0.9913 0 0 1 808.3096 446.6377)" font-family="'MyriadPro-Regular'" font-size="20.3302">Humidity :</text>
<rect x="901.543" y="430.344" fill="#B1C9DD" stroke="#0D1216" stroke-miterlimit="10" width="117.814" height="22.794"/>
<text transform="matrix(1.0087 0 0 1 913.458 446.6377)" font-family="'MyriadPro-Regular'" font-size="15.9711" id="HumidityCex3">HumidityCex3</text>
<text transform="matrix(0.9913 0 0 1 579.3052 448.0615)" font-family="'MyriadPro-Regular'" font-size="20.3302">Intensity :</text>
<rect x="665.033" y="430.344" fill="#B1C9DD" stroke="#0D1216" stroke-miterlimit="10" width="117.814" height="22.794"/>
<text transform="matrix(1.0087 0 0 1 676.9482 446.6377)" font-family="'MyriadPro-Regular'" font-size="15.9711" id="IntensityCex3">IntensityCex3</text>
<text transform="matrix(0.9913 0 0 1 862.2275 55.1729)" font-family="'MyriadPro-Regular'" font-size="20.3302">Starch flow in :</text>
<rect x="992.882" y="36.941" fill="#B1C9DD" stroke="#0D1216" stroke-miterlimit="10" width="117.814" height="22.794"/>
<text transform="matrix(1.0087 0 0 1 1004.7969 53.2354)" font-family="'MyriadPro-Regular'" font-size="15.9711" id="FlowInCex3">FlowInCex3</text>
<text transform="matrix(0.9913 0 0 1 1120.4873 54.3218)" font-family="'MyriadPro-Regular'" font-size="20.3302">Ton/Hr</text>
<text transform="matrix(0.9913 0 0 1 904.5508 93.7412)" font-family="'MyriadPro-Regular'" font-size="20.3302">%Starch :</text>
<rect x="992.584" y="77.447" fill="#B1C9DD" stroke="#0D1216" stroke-miterlimit="10" width="117.814" height="22.794"/>
<text transform="matrix(1.0087 0 0 1 1004.499 93.7412)" font-family="'MyriadPro-Regular'" font-size="15.9711" id="Cex3">      %Cex3</text>
<text transform="matrix(0.9913 0 0 1 844.9688 133.1401)" font-family="'MyriadPro-Regular'" font-size="20.3302">%Starch Residue:</text>
<rect x="993.916" y="116.846" fill="#B1C9DD" stroke="#0D1216" stroke-miterlimit="10" width="117.814" height="22.794"/>
<text transform="matrix(1.0087 0 0 1 1005.8311 133.1401)" font-family="'MyriadPro-Regular'" font-size="15.9711" id="ResCex3">%ResCex3</text>
<text transform="matrix(0.9913 0 0 1 864.1553 393.7412)" font-family="'MyriadPro-Regular'" font-size="20.3302">PH :</text>
<text transform="matrix(1.1964 0 0 1 105.1128 315.8418)" font-family="'MyriadPro-Regular'" font-size="13.309">Running</text>
<ellipse fill="#ABADAA" stroke="#848484" stroke-miterlimit="10" cx="77.726" cy="312.188" rx="20.875" ry="18.25"/>
<ellipse fill="#666665" stroke="#848484" stroke-miterlimit="10" cx="77.476" cy="312.188" rx="13.938" ry="12.969"/>
</svg>
