<?xml version="1.0" encoding="utf-8"?>
<!-- Generator: Adobe Illustrator 16.0.0, SVG Export Plug-In . SVG Version: 6.00 Build 0)  -->
<!DOCTYPE svg PUBLIC "-//W3C//DTD SVG 1.1//EN" "http://www.w3.org/Graphics/SVG/1.1/DTD/svg11.dtd">
<svg version="1.1" id="Layer_1" xmlns="http://www.w3.org/2000/svg" xmlns:xlink="http://www.w3.org/1999/xlink" x="0px" y="0px"
	 width="1200px" height="580px" viewBox="0 0 1200 580" enable-background="new 0 0 1200 580" xml:space="preserve">
<rect x="0" y="0" fill="#CFCECE" width="1200" height="580"/>
<polyline fill="none" stroke="#000000" stroke-width="5" stroke-miterlimit="10" points="705.293,214.912 705.293,281.257 
	705.293,310.498 1094.559,310.498 "/>
<polygon stroke="#000000" stroke-width="2" stroke-miterlimit="10" points="38.863,304.629 83.54,304.629 103.176,310.498 
	85.341,318.3 38.863,318.3 "/>
<text transform="matrix(1.1384 0 0 1 35.3635 295.4324)" font-family="'MyriadPro-Regular'" font-size="14">Cassava In</text>
<line fill="none" stroke="#000000" stroke-width="5" stroke-miterlimit="10" x1="103.176" y1="310.498" x2="395.75" y2="310.498"/>
<polygon stroke="#000000" stroke-width="2" stroke-miterlimit="10" points="1094.631,303.039 1139.309,303.039 1158.943,308.908 
	1141.109,316.711 1094.631,316.711 "/>
<text transform="matrix(1.1384 0 0 1 1093.9631 294.2195)" font-family="'MyriadPro-Regular'" font-size="14">Rasper01</text>
<g>
	<polygon fill="#BCB8B8" stroke="#000000" stroke-width="6" stroke-miterlimit="10" points="671.39,230.697 399.001,327.553 
		399.001,286 670.058,191.138 	"/>
	
		<line fill="none" stroke="#000000" stroke-width="6" stroke-miterlimit="10" x1="399.001" y1="301.961" x2="671.443" y2="201.701"/>
	<path fill="#51514F" stroke="#000000" stroke-width="6" stroke-miterlimit="10" d="M420.21,298.357c0,0,1.488-12.918,5.149-4.941
		c2.951,6.438-1.08,16.24,1.491,8.295c2.572-7.939-2.979,17.477-10.585,12.641c0,0-5.548-5.928,2.448-10.873"/>
	<path fill="#51514F" stroke="#000000" stroke-width="6" stroke-miterlimit="10" d="M435.868,291.594c0,0,1.496-12.923,5.153-4.946
		c2.955,6.435-1.079,16.241,1.491,8.297c2.571-7.944-2.979,17.478-10.585,12.636c0,0-5.557-5.929,2.455-10.875"/>
	<path fill="#51514F" stroke="#000000" stroke-width="6" stroke-miterlimit="10" d="M451.887,285.669c0,0,1.496-12.918,5.149-4.94
		c2.952,6.435-1.075,16.235,1.492,8.293c2.567-7.939-2.979,17.476-10.588,12.64c0,0-5.553-5.934,2.454-10.873"/>
	<path fill="#51514F" stroke="#000000" stroke-width="6" stroke-miterlimit="10" d="M467.551,278.827c0,0,1.488-12.919,5.146-4.94
		c2.952,6.436-1.076,16.236,1.492,8.297c2.567-7.943-2.984,17.472-10.59,12.632c0,0-5.548-5.932,2.456-10.869"/>
	<path fill="#51514F" stroke="#000000" stroke-width="6" stroke-miterlimit="10" d="M482.841,274.522c0,0,1.488-12.915,5.149-4.94
		c2.945,6.437-1.08,16.238,1.492,8.297c2.563-7.941-2.982,17.475-10.588,12.637c0,0-5.553-5.929,2.45-10.871"/>
	<path fill="#51514F" stroke="#000000" stroke-width="6" stroke-miterlimit="10" d="M498.5,267.679c0,0,1.494-12.915,5.148-4.938
		c2.952,6.433-1.075,16.238,1.496,8.294c2.566-7.943-2.984,17.478-10.589,12.637c0,0-5.552-5.928,2.451-10.873"/>
	<path fill="#51514F" stroke="#000000" stroke-width="6" stroke-miterlimit="10" d="M514.515,261.759c0,0,1.495-12.918,5.146-4.943
		c2.959,6.438-1.071,16.242,1.496,8.298c2.572-7.945-2.98,17.475-10.584,12.639c0,0-5.553-5.933,2.447-10.873"/>
	<path fill="#51514F" stroke="#000000" stroke-width="6" stroke-miterlimit="10" d="M530.175,254.917c0,0,1.491-12.921,5.149-4.94
		c2.949,6.433-1.078,16.236,1.492,8.294c2.57-7.945-2.98,17.477-10.585,12.637c0,0-5.552-5.931,2.447-10.87"/>
	<path fill="#51514F" stroke="#000000" stroke-width="6" stroke-miterlimit="10" d="M543.274,253.219c0,0,1.488-12.921,5.152-4.942
		c2.946,6.431-1.079,16.236,1.492,8.293c2.563-7.941-2.987,17.475-10.596,12.637c0,0-5.544-5.927,2.455-10.869"/>
	<path fill="#51514F" stroke="#000000" stroke-width="6" stroke-miterlimit="10" d="M558.938,246.374c0,0,1.492-12.919,5.149-4.94
		c2.948,6.435-1.079,16.238,1.488,8.296c2.566-7.943-2.98,17.474-10.589,12.637c0,0-5.548-5.929,2.452-10.873"/>
	<path fill="#51514F" stroke="#000000" stroke-width="6" stroke-miterlimit="10" d="M574.949,240.45c0,0,1.492-12.915,5.149-4.941
		c2.948,6.437-1.075,16.241,1.492,8.298s-2.986,17.479-10.585,12.639c0,0-5.555-5.929,2.444-10.873"/>
	<path fill="#51514F" stroke="#000000" stroke-width="6" stroke-miterlimit="10" d="M590.612,233.608c0,0,1.491-12.919,5.151-4.944
		c2.949,6.437-1.079,16.24,1.489,8.296c2.567-7.939-2.984,17.478-10.586,12.637c0,0-5.555-5.929,2.449-10.869"/>
	<path fill="#51514F" stroke="#000000" stroke-width="6" stroke-miterlimit="10" d="M605.901,229.307c0,0,1.491-12.918,5.149-4.941
		c2.953,6.437-1.075,16.239,1.496,8.292c2.564-7.938-2.987,17.479-10.597,12.641c0,0-5.548-5.927,2.454-10.871"/>
	<path fill="#51514F" stroke="#000000" stroke-width="6" stroke-miterlimit="10" d="M621.566,222.461c0,0,1.488-12.916,5.148-4.938
		c2.945,6.435-1.075,16.234,1.488,8.293c2.572-7.943-2.984,17.473-10.584,12.637c0,0-5.553-5.928,2.443-10.872"/>
	<path fill="#51514F" stroke="#000000" stroke-width="6" stroke-miterlimit="10" d="M637.574,216.542c0,0,1.492-12.919,5.151-4.943
		c2.953,6.435-1.07,16.237,1.493,8.3c2.566-7.947-2.979,17.474-10.586,12.635c0,0-5.548-5.929,2.44-10.873"/>
	<path fill="#51514F" stroke="#000000" stroke-width="6" stroke-miterlimit="10" d="M653.241,209.696c0,0,1.484-12.919,5.146-4.942
		c2.952,6.437-1.074,16.24,1.492,8.296c2.567-7.941-2.979,17.476-10.585,12.639c0,0-5.552-5.931,2.444-10.869"/>
	<polygon fill="none" stroke="#000000" stroke-width="6" stroke-miterlimit="10" points="399.001,286 670.058,191.138 
		670.058,231.168 399.001,327.553 	"/>
	
		<line fill="none" stroke="#000000" stroke-width="6" stroke-miterlimit="10" x1="670.058" y1="222.214" x2="400.928" y2="317.893"/>
	<polygon fill="none" stroke="#000000" stroke-width="6" stroke-miterlimit="10" points="527.037,286.805 527.037,293.688 
		544.005,293.688 544.005,280.921 	"/>
	
		<line fill="none" stroke="#000000" stroke-width="6" stroke-miterlimit="10" x1="524.358" y1="293.203" x2="524.358" y2="341.955"/>
	
		<line fill="none" stroke="#000000" stroke-width="6" stroke-miterlimit="10" x1="546.841" y1="293.203" x2="546.841" y2="341.955"/>
	
		<rect x="527.037" y="310.469" fill="none" stroke="#000000" stroke-width="6" stroke-miterlimit="10" width="16.969" height="9.547"/>
	<polyline fill="none" stroke="#000000" stroke-width="6" stroke-miterlimit="10" points="527.037,293.203 544.005,322.453 
		544.005,293.203 527.037,322.453 	"/>
	<polygon fill="#FCEE22" stroke="#000000" stroke-width="6" stroke-miterlimit="10" points="673.349,190.52 689.679,190.52 
		706.005,190.52 706.005,248.607 687.175,248.607 673.349,219.563 	"/>
	<polyline fill="none" stroke="#000000" stroke-width="6" stroke-miterlimit="10" points="689.679,191.792 689.679,220.315 
		704.575,220.315 	"/>
	<line fill="none" stroke="#000000" stroke-width="6" stroke-miterlimit="10" x1="673.349" y1="219.244" x2="673.349" y2="285.59"/>
	
		<line fill="none" stroke="#000000" stroke-width="6" stroke-miterlimit="10" x1="706.005" y1="221.789" x2="706.005" y2="288.133"/>
	
		<line fill="none" stroke="#000000" stroke-width="6" stroke-miterlimit="10" x1="691.702" y1="251.077" x2="691.702" y2="288.133"/>
	<line fill="none" stroke="#000000" stroke-width="6" stroke-miterlimit="10" x1="681.69" y1="221.897" x2="681.69" y2="288.244"/>
	<polyline fill="#9A9A98" stroke="#000000" stroke-width="6" stroke-miterlimit="10" points="704.575,249.295 686.935,249.295 
		686.935,267.827 680.737,286.354 704.575,286.354 	"/>
	<polyline fill="none" stroke="#000000" stroke-width="6" stroke-miterlimit="10" points="674.538,274.403 704.575,274.403 
		704.575,254.959 674.538,254.959 	"/>
	<line fill="none" stroke="#000000" stroke-width="6" stroke-miterlimit="10" x1="674.538" y1="253.321" x2="717.212" y2="253.47"/>
	<polygon fill="#FCEE22" stroke="#000000" stroke-width="6" stroke-miterlimit="10" points="738.388,190.52 722.058,190.52 
		705.731,190.52 705.731,248.607 724.563,248.607 738.388,219.563 	"/>
	<polyline fill="none" stroke="#000000" stroke-width="6" stroke-miterlimit="10" points="722.058,191.792 722.058,220.315 
		707.157,220.315 	"/>
	
		<line fill="none" stroke="#000000" stroke-width="6" stroke-miterlimit="10" x1="720.031" y1="251.077" x2="720.031" y2="288.133"/>
	
		<line fill="none" stroke="#000000" stroke-width="6" stroke-miterlimit="10" x1="730.047" y1="221.897" x2="730.047" y2="288.244"/>
	<polyline fill="#9A9A98" stroke="#000000" stroke-width="6" stroke-miterlimit="10" points="707.157,249.295 724.802,249.295 
		724.802,267.827 730.997,286.354 707.157,286.354 	"/>
	<polyline fill="none" stroke="#000000" stroke-width="6" stroke-miterlimit="10" points="737.196,274.403 707.157,274.403 
		707.157,254.959 737.196,254.959 	"/>
	<line fill="none" stroke="#000000" stroke-width="6" stroke-miterlimit="10" x1="737.196" y1="253.321" x2="694.524" y2="253.47"/>
	<text transform="matrix(1.1384 0 0 1 661.3479 152.7244)" font-family="'MyriadPro-Regular'" font-size="18">Chopper01</text>
</g>
<text transform="matrix(1.1503 0 0 1 1101.3049 52.283)" font-family="'MyriadPro-Regular'" font-size="13.309">Activated</text>
<ellipse fill="#ABADAA" stroke="#848484" stroke-miterlimit="10" cx="1074.974" cy="48.629" rx="20.069" ry="18.25"/>
<ellipse id="status-light" fill="#666665" stroke="#848484" stroke-miterlimit="10" cx="1074.733" cy="48.629" rx="13.4" ry="12.969"/>
<rect x="968.604" y="-6.811" fill="none" width="199.018" height="88"/>
</svg>
