<?xml version="1.0" encoding="utf-8"?>
<!-- Generator: Adobe Illustrator 16.0.0, SVG Export Plug-In . SVG Version: 6.00 Build 0)  -->
<!DOCTYPE svg PUBLIC "-//W3C//DTD SVG 1.1//EN" "http://www.w3.org/Graphics/SVG/1.1/DTD/svg11.dtd">
<svg version="1.1" id="Layer_1" xmlns="http://www.w3.org/2000/svg" xmlns:xlink="http://www.w3.org/1999/xlink" x="0px" y="0px"
	 width="1200px" height="580px" viewBox="0 0 1200 580" enable-background="new 0 0 1200 580" xml:space="preserve">
<rect x="0" y="0" fill="#CFCECE" width="1200" height="580"/>
<g>
	<polygon fill="#B0AFB0" stroke="#000000" stroke-width="2" stroke-miterlimit="10" points="573.907,289.466 548.92,289.466 
		548.92,292.529 524.394,292.529 524.394,295.652 499.89,295.652 499.89,298.855 475.115,298.855 475.115,302.055 450.345,302.055 
		450.345,305.259 425.878,305.259 425.878,308.385 401.41,308.385 401.41,311.51 376.718,311.51 376.718,314.555 352.227,314.555 
		352.227,317.607 327.324,317.607 327.324,320.654 302.836,320.654 302.836,323.807 278.152,323.807 278.152,326.754 
		253.558,326.754 253.558,329.902 228.748,329.902 228.748,332.948 204.053,332.948 204.053,336 179.255,336 179.255,339.05 
		154.774,339.05 154.774,341.996 129.875,341.996 129.875,345.046 105.383,345.046 105.383,351.648 130.066,351.648 
		130.066,348.553 154.992,348.553 155.068,345.581 179.458,345.581 179.305,342.529 204.154,342.604 204.079,339.404 
		228.772,339.48 228.849,336.432 253.774,336.279 253.774,333.156 278.164,333.156 278.164,330.104 302.705,330.104 
		302.783,327.057 327.324,327.057 327.324,324.389 352.404,324.313 352.404,321.188 376.869,321.188 376.792,318.139 
		401.563,318.218 401.488,315.17 425.728,315.17 425.804,312.271 450.345,312.191 450.345,309.146 475.115,309.146 475.194,305.941 
		499.658,306.173 499.658,303.354 524.052,303.354 524.052,300.302 548.823,300.302 548.823,297.253 573.907,297.253 	"/>
	<circle fill="#B0AFB0" stroke="#000000" stroke-width="2" stroke-miterlimit="10" cx="110.516" cy="348.364" r="1.944"/>
	<circle fill="#B0AFB0" stroke="#000000" stroke-width="2" stroke-miterlimit="10" cx="117.226" cy="348.364" r="1.944"/>
	<circle fill="#B0AFB0" stroke="#000000" stroke-width="2" stroke-miterlimit="10" cx="123.932" cy="348.364" r="1.944"/>
	<path fill="#B0AFB0" stroke="#000000" stroke-width="2" stroke-miterlimit="10" d="M150.877,345.348
		c0,1.076-0.87,1.945-1.944,1.945c-1.073,0-1.944-0.869-1.944-1.945c0-1.07,0.871-1.943,1.944-1.943
		C150.007,343.404,150.877,344.277,150.877,345.348z"/>
	<path fill="#B0AFB0" stroke="#000000" stroke-width="2" stroke-miterlimit="10" d="M144.17,345.158c0,1.07-0.873,1.945-1.943,1.945
		c-1.074,0-1.947-0.875-1.947-1.945s0.873-1.939,1.947-1.939C143.297,343.219,144.17,344.088,144.17,345.158z"/>
	<path fill="#B0AFB0" stroke="#000000" stroke-width="2" stroke-miterlimit="10" d="M137.46,345.348
		c0,1.076-0.871,1.945-1.941,1.945c-1.076,0-1.943-0.869-1.943-1.945c0-1.07,0.867-1.943,1.943-1.943
		C136.59,343.404,137.46,344.277,137.46,345.348z"/>
	<path fill="#B0AFB0" stroke="#000000" stroke-width="2" stroke-miterlimit="10" d="M175.874,342.302
		c0,1.071-0.868,1.943-1.941,1.943s-1.944-0.872-1.944-1.943s0.871-1.944,1.944-1.944
		C175.006,340.355,175.874,341.229,175.874,342.302z"/>
	<path fill="#B0AFB0" stroke="#000000" stroke-width="2" stroke-miterlimit="10" d="M169.167,342.111c0,1.07-0.87,1.938-1.941,1.938
		c-1.076,0-1.941-0.867-1.941-1.938c0-1.074,0.866-1.94,1.941-1.94C168.297,340.171,169.167,341.037,169.167,342.111z"/>
	<path fill="#B0AFB0" stroke="#000000" stroke-width="2" stroke-miterlimit="10" d="M162.462,342.302
		c0,1.071-0.87,1.943-1.945,1.943c-1.074,0-1.939-0.872-1.939-1.943s0.865-1.944,1.939-1.944
		C161.592,340.355,162.462,341.229,162.462,342.302z"/>
	<circle fill="#B0AFB0" stroke="#000000" stroke-width="2" stroke-miterlimit="10" cx="198.324" cy="339.252" r="1.945"/>
	<path fill="#B0AFB0" stroke="#000000" stroke-width="2" stroke-miterlimit="10" d="M193.558,339.059
		c0,1.077-0.869,1.945-1.939,1.945c-1.072,0-1.945-0.868-1.945-1.945c0-1.07,0.873-1.938,1.945-1.938
		C192.689,337.118,193.558,337.988,193.558,339.059z"/>
	<circle fill="#B0AFB0" stroke="#000000" stroke-width="2" stroke-miterlimit="10" cx="184.908" cy="339.252" r="1.943"/>
	<path fill="#B0AFB0" stroke="#000000" stroke-width="2" stroke-miterlimit="10" d="M225.269,336.204
		c0,1.073-0.874,1.942-1.942,1.942c-1.073,0-1.945-0.869-1.945-1.942c0-1.071,0.872-1.939,1.945-1.939
		C224.396,334.261,225.269,335.133,225.269,336.204z"/>
	<path fill="#B0AFB0" stroke="#000000" stroke-width="2" stroke-miterlimit="10" d="M218.56,336.012c0,1.075-0.871,1.946-1.94,1.946
		c-1.075,0-1.945-0.871-1.945-1.946c0-1.068,0.87-1.943,1.945-1.943C217.688,334.068,218.56,334.941,218.56,336.012z"/>
	<circle fill="#B0AFB0" stroke="#000000" stroke-width="2" stroke-miterlimit="10" cx="209.909" cy="336.204" r="1.944"/>
	<path fill="#B0AFB0" stroke="#000000" stroke-width="2" stroke-miterlimit="10" d="M249.658,333.156
		c0,1.07-0.872,1.939-1.946,1.939c-1.07,0-1.94-0.869-1.94-1.939c0-1.074,0.87-1.944,1.94-1.944
		C248.786,331.212,249.658,332.082,249.658,333.156z"/>
	<circle fill="#B0AFB0" stroke="#000000" stroke-width="2" stroke-miterlimit="10" cx="241.006" cy="332.964" r="1.943"/>
	<path fill="#B0AFB0" stroke="#000000" stroke-width="2" stroke-miterlimit="10" d="M236.243,333.156c0,1.07-0.87,1.939-1.942,1.939
		c-1.075,0-1.945-0.869-1.945-1.939c0-1.074,0.871-1.944,1.945-1.944C235.373,331.212,236.243,332.082,236.243,333.156z"/>
	<circle fill="#B0AFB0" stroke="#000000" stroke-width="2" stroke-miterlimit="10" cx="272.713" cy="330.104" r="1.943"/>
	<circle fill="#B0AFB0" stroke="#000000" stroke-width="2" stroke-miterlimit="10" cx="266.007" cy="329.915" r="1.944"/>
	<circle fill="#B0AFB0" stroke="#000000" stroke-width="2" stroke-miterlimit="10" cx="259.3" cy="330.104" r="1.944"/>
	<circle fill="#B0AFB0" stroke="#000000" stroke-width="2" stroke-miterlimit="10" cx="321.495" cy="324.009" r="1.944"/>
	<circle fill="#B0AFB0" stroke="#000000" stroke-width="2" stroke-miterlimit="10" cx="314.788" cy="323.817" r="1.945"/>
	<circle fill="#B0AFB0" stroke="#000000" stroke-width="2" stroke-miterlimit="10" cx="308.08" cy="324.009" r="1.944"/>
	<circle fill="#B0AFB0" stroke="#000000" stroke-width="2" stroke-miterlimit="10" cx="297.105" cy="327.057" r="1.943"/>
	<path fill="#B0AFB0" stroke="#000000" stroke-width="2" stroke-miterlimit="10" d="M292.34,326.868
		c0,1.069-0.869,1.938-1.942,1.938c-1.069,0-1.941-0.869-1.941-1.938c0-1.071,0.873-1.942,1.941-1.942
		C291.471,324.926,292.34,325.797,292.34,326.868z"/>
	<circle fill="#B0AFB0" stroke="#000000" stroke-width="2" stroke-miterlimit="10" cx="283.69" cy="327.057" r="1.944"/>
	<circle fill="#B0AFB0" stroke="#000000" stroke-width="2" stroke-miterlimit="10" cx="346.497" cy="320.959" r="1.943"/>
	<circle fill="#B0AFB0" stroke="#000000" stroke-width="2" stroke-miterlimit="10" cx="339.787" cy="320.769" r="1.944"/>
	<circle fill="#B0AFB0" stroke="#000000" stroke-width="2" stroke-miterlimit="10" cx="333.081" cy="320.959" r="1.943"/>
	<path fill="#B0AFB0" stroke="#000000" stroke-width="2" stroke-miterlimit="10" d="M373.439,317.911c0,1.069-0.87,1.942-1.94,1.942
		c-1.074,0-1.945-0.873-1.945-1.942c0-1.07,0.871-1.944,1.945-1.944C372.57,315.967,373.439,316.841,373.439,317.911z"/>
	<circle fill="#B0AFB0" stroke="#000000" stroke-width="2" stroke-miterlimit="10" cx="364.788" cy="317.721" r="1.943"/>
	<path fill="#B0AFB0" stroke="#000000" stroke-width="2" stroke-miterlimit="10" d="M360.024,317.911
		c0,1.069-0.87,1.942-1.941,1.942c-1.072,0-1.942-0.873-1.942-1.942c0-1.07,0.871-1.944,1.942-1.944
		S360.024,316.841,360.024,317.911z"/>
	<circle fill="#B0AFB0" stroke="#000000" stroke-width="2" stroke-miterlimit="10" cx="395.887" cy="314.864" r="1.944"/>
	<circle fill="#B0AFB0" stroke="#000000" stroke-width="2" stroke-miterlimit="10" cx="389.179" cy="314.67" r="1.944"/>
	<circle fill="#B0AFB0" stroke="#000000" stroke-width="2" stroke-miterlimit="10" cx="382.472" cy="314.864" r="1.943"/>
	<path fill="#B0AFB0" stroke="#000000" stroke-width="2" stroke-miterlimit="10" d="M446.612,308.766
		c0,1.071-0.87,1.938-1.939,1.938c-1.075,0-1.946-0.866-1.946-1.938c0-1.074,0.871-1.94,1.946-1.94
		C445.74,306.82,446.612,307.691,446.612,308.766z"/>
	<circle fill="#B0AFB0" stroke="#000000" stroke-width="2" stroke-miterlimit="10" cx="437.961" cy="308.572" r="1.944"/>
	<circle fill="#B0AFB0" stroke="#000000" stroke-width="2" stroke-miterlimit="10" cx="431.253" cy="308.766" r="1.945"/>
	<path fill="#B0AFB0" stroke="#000000" stroke-width="2" stroke-miterlimit="10" d="M422.222,311.811
		c0,1.076-0.871,1.946-1.942,1.946c-1.072,0-1.939-0.87-1.939-1.946c0-1.066,0.867-1.938,1.939-1.938
		C421.352,309.871,422.222,310.74,422.222,311.811z"/>
	<path fill="#B0AFB0" stroke="#000000" stroke-width="2" stroke-miterlimit="10" d="M415.515,311.622
		c0,1.073-0.874,1.942-1.941,1.942c-1.07,0-1.942-0.869-1.942-1.942c0-1.071,0.872-1.939,1.942-1.939
		C414.641,309.68,415.515,310.551,415.515,311.622z"/>
	<path fill="#B0AFB0" stroke="#000000" stroke-width="2" stroke-miterlimit="10" d="M408.807,311.811
		c0,1.076-0.871,1.946-1.941,1.946c-1.074,0-1.94-0.87-1.94-1.946c0-1.066,0.87-1.938,1.94-1.938
		C407.935,309.872,408.807,310.74,408.807,311.811z"/>
	<path fill="#B0AFB0" stroke="#000000" stroke-width="2" stroke-miterlimit="10" d="M471.613,305.715
		c0,1.07-0.873,1.945-1.946,1.945c-1.069,0-1.939-0.875-1.939-1.945c0-1.069,0.87-1.938,1.939-1.938
		C470.74,303.771,471.613,304.643,471.613,305.715z"/>
	<path fill="#B0AFB0" stroke="#000000" stroke-width="2" stroke-miterlimit="10" d="M464.903,305.521
		c0,1.074-0.869,1.944-1.94,1.944s-1.944-0.87-1.944-1.944c0-1.069,0.873-1.938,1.944-1.938
		C464.032,303.583,464.903,304.452,464.903,305.521z"/>
	<path fill="#B0AFB0" stroke="#000000" stroke-width="2" stroke-miterlimit="10" d="M458.196,305.715
		c0,1.07-0.869,1.945-1.939,1.945c-1.071,0-1.945-0.875-1.945-1.945c0-1.069,0.875-1.938,1.945-1.938
		C457.324,303.771,458.196,304.643,458.196,305.715z"/>
	<path fill="#B0AFB0" stroke="#000000" stroke-width="2" stroke-miterlimit="10" d="M496.615,302.666
		c0,1.072-0.874,1.943-1.942,1.943c-1.073,0-1.947-0.871-1.947-1.943c0-1.069,0.874-1.942,1.947-1.942
		C495.74,300.721,496.615,301.594,496.615,302.666z"/>
	<circle fill="#B0AFB0" stroke="#000000" stroke-width="2" stroke-miterlimit="10" cx="487.961" cy="302.476" r="1.944"/>
	<circle fill="#B0AFB0" stroke="#000000" stroke-width="2" stroke-miterlimit="10" cx="481.254" cy="302.666" r="1.943"/>
	<path fill="#B0AFB0" stroke="#000000" stroke-width="2" stroke-miterlimit="10" d="M521.003,299.615
		c0,1.076-0.87,1.945-1.945,1.945c-1.069,0-1.939-0.869-1.939-1.945c0-1.07,0.871-1.943,1.939-1.943
		C520.133,297.672,521.003,298.545,521.003,299.615z"/>
	<circle fill="#B0AFB0" stroke="#000000" stroke-width="2" stroke-miterlimit="10" cx="512.351" cy="299.427" r="1.945"/>
	<path fill="#B0AFB0" stroke="#000000" stroke-width="2" stroke-miterlimit="10" d="M507.586,299.615
		c0,1.076-0.867,1.945-1.938,1.945c-1.078,0-1.944-0.869-1.944-1.945c0-1.07,0.867-1.943,1.944-1.943
		C506.719,297.672,507.586,298.545,507.586,299.615z"/>
	<path fill="#B0AFB0" stroke="#000000" stroke-width="2" stroke-miterlimit="10" d="M545.394,296.566
		c0,1.074-0.872,1.938-1.939,1.938c-1.073,0-1.944-0.863-1.944-1.938c0-1.07,0.872-1.942,1.944-1.942
		C544.521,294.624,545.394,295.496,545.394,296.566z"/>
	<circle fill="#B0AFB0" stroke="#000000" stroke-width="2" stroke-miterlimit="10" cx="536.74" cy="296.378" r="1.945"/>
	<path fill="#B0AFB0" stroke="#000000" stroke-width="2" stroke-miterlimit="10" d="M531.98,296.566
		c0,1.074-0.873,1.938-1.946,1.938c-1.07,0-1.941-0.863-1.941-1.938c0-1.07,0.872-1.942,1.941-1.942
		C531.105,294.624,531.98,295.496,531.98,296.566z"/>
	<path fill="#B0AFB0" stroke="#000000" stroke-width="2" stroke-miterlimit="10" d="M570.395,293.521
		c0,1.066-0.87,1.938-1.943,1.938c-1.067,0-1.938-0.867-1.938-1.938c0-1.074,0.869-1.944,1.938-1.944
		C569.521,291.576,570.395,292.445,570.395,293.521z"/>
	<circle fill="#B0AFB0" stroke="#000000" stroke-width="2" stroke-miterlimit="10" cx="561.74" cy="293.329" r="1.942"/>
	<circle fill="#B0AFB0" stroke="#000000" stroke-width="2" stroke-miterlimit="10" cx="555.032" cy="293.521" r="1.943"/>
	<polygon fill="#B0AFB0" stroke="#000000" stroke-width="2" stroke-miterlimit="10" points="353.953,366.186 358.423,322.902 
		370.822,322.902 375.093,366.186 371.129,366.186 364.522,327.282 357.916,366.186 	"/>
	<polygon fill="none" stroke="#000000" stroke-width="2" stroke-miterlimit="10" points="360.05,355.852 368.893,355.852 
		371.636,336.641 357.712,336.641 	"/>
	<polygon fill="none" stroke="#000000" stroke-width="2" stroke-miterlimit="10" points="361.068,348.926 367.977,348.926 
		372.959,348.926 372.248,342.234 356.797,342.234 356.188,348.926 	"/>
	<line fill="none" stroke="#000000" stroke-width="2" stroke-miterlimit="10" x1="371.467" y1="329.424" x2="358.22" y2="329.424"/>
	<polygon fill="#B0AFB0" stroke="#000000" stroke-width="2" stroke-miterlimit="10" points="232.609,366.091 236.09,337.932 
		245.739,337.932 249.06,366.091 245.977,366.091 240.834,340.781 235.695,366.091 	"/>
	<polygon fill="none" stroke="#000000" stroke-width="2" stroke-miterlimit="10" points="237.355,359.365 244.237,359.365 
		246.371,346.869 235.538,346.869 	"/>
	<polygon fill="none" stroke="#000000" stroke-width="2" stroke-miterlimit="10" points="238.147,354.855 243.525,354.855 
		247.398,354.855 246.847,350.507 234.825,350.507 234.351,354.855 	"/>
	
		<line fill="none" stroke="#000000" stroke-width="2" stroke-miterlimit="10" x1="246.241" y1="342.176" x2="235.934" y2="342.176"/>
	<polygon fill="#B0AFB0" stroke="#000000" stroke-width="2" stroke-miterlimit="10" points="474.95,365.468 480.265,307.023 
		494.986,307.023 500.052,365.468 495.347,365.468 487.502,312.936 479.657,365.468 	"/>
	<polygon fill="none" stroke="#000000" stroke-width="2" stroke-miterlimit="10" points="482.195,351.512 492.693,351.512 
		495.949,325.574 479.419,325.574 	"/>
	<polygon fill="none" stroke="#000000" stroke-width="2" stroke-miterlimit="10" points="483.401,342.152 491.609,342.152 
		497.521,342.152 496.676,333.131 478.328,333.131 477.61,342.152 	"/>
	
		<line fill="none" stroke="#000000" stroke-width="2" stroke-miterlimit="10" x1="495.745" y1="315.825" x2="480.019" y2="315.825"/>
	<polygon fill="#B0AFB0" stroke="#000000" stroke-width="2" stroke-miterlimit="10" points="136.616,365.975 138.99,349.514 
		145.569,349.514 147.833,365.975 145.729,365.975 142.227,351.18 138.718,365.975 	"/>
	<polygon fill="none" stroke="#000000" stroke-width="2" stroke-miterlimit="10" points="139.852,362.049 144.543,362.049 
		146.001,354.739 138.613,354.739 	"/>
	<polygon fill="none" stroke="#000000" stroke-width="2" stroke-miterlimit="10" points="140.392,359.41 144.058,359.41 
		146.701,359.41 146.323,356.864 138.128,356.864 137.803,359.41 	"/>
	<line fill="none" stroke="#000000" stroke-width="2" stroke-miterlimit="10" x1="145.909" y1="351.992" x2="138.88" y2="351.992"/>
</g>
<g>
	
		<rect x="768.514" y="259.533" fill="#E2E0DE" stroke="#000000" stroke-width="4" stroke-miterlimit="10" width="278.749" height="11.197"/>
	
		<rect x="770.139" y="264.369" fill="#727171" stroke="#000000" stroke-width="4" stroke-miterlimit="10" width="322.527" height="12.876"/>
	<polygon fill="#928D34" stroke="#000000" stroke-width="4" stroke-miterlimit="10" points="806.593,301.027 821.823,280.924 
		830.773,280.924 815.963,301.027 	"/>
	<polygon fill="#928D34" stroke="#000000" stroke-width="4" stroke-miterlimit="10" points="850.18,301.027 865.41,280.924 
		874.362,280.924 859.55,301.027 	"/>
	<polygon fill="#928D34" stroke="#000000" stroke-width="4" stroke-miterlimit="10" points="892.257,301.027 907.49,280.924 
		916.438,280.924 901.628,301.027 	"/>
	<polygon fill="#928D34" stroke="#000000" stroke-width="4" stroke-miterlimit="10" points="933.355,301.027 948.591,280.924 
		957.535,280.924 942.727,301.027 	"/>
	<polygon fill="#928D34" stroke="#000000" stroke-width="4" stroke-miterlimit="10" points="975.433,301.027 990.668,280.924 
		999.615,280.924 984.804,301.027 	"/>
	<polygon fill="#928D34" stroke="#000000" stroke-width="4" stroke-miterlimit="10" points="1019.021,301.027 1034.256,280.924 
		1043.199,280.924 1028.392,301.027 	"/>
	<polygon fill="#928D34" stroke="#000000" stroke-width="4" stroke-miterlimit="10" points="1061.097,301.027 1076.328,280.924 
		1085.28,280.924 1070.468,301.027 	"/>
	<polygon fill="#928D34" stroke="#000000" stroke-width="4" stroke-miterlimit="10" points="764.516,301.027 779.75,280.924 
		788.697,280.924 773.887,301.027 	"/>
	
		<rect x="744.66" y="301.389" fill="#F6EC13" stroke="#000000" stroke-width="4" stroke-miterlimit="10" width="348.006" height="6.543"/>
	
		<rect x="744.66" y="277.245" fill="#F6EC13" stroke="#000000" stroke-width="4" stroke-miterlimit="10" width="348.006" height="3.68"/>
	<polygon fill="#F6EC13" stroke="#000000" stroke-width="4" stroke-miterlimit="10" points="753.448,280.924 765.422,301.389 
		775.576,301.389 763.487,280.924 	"/>
	<polygon fill="#F6EC13" stroke="#000000" stroke-width="4" stroke-miterlimit="10" points="795.529,280.924 807.495,301.389 
		817.655,301.389 805.564,280.924 	"/>
	<polygon fill="#F6EC13" stroke="#000000" stroke-width="4" stroke-miterlimit="10" points="838.327,280.924 850.3,301.389 
		860.454,301.389 848.365,280.924 	"/>
	<polygon fill="#F6EC13" stroke="#000000" stroke-width="4" stroke-miterlimit="10" points="880.406,280.924 892.378,301.389 
		902.531,301.389 890.442,280.924 	"/>
	<polygon fill="#F6EC13" stroke="#000000" stroke-width="4" stroke-miterlimit="10" points="922.291,280.924 934.264,301.389 
		944.42,301.389 932.325,280.924 	"/>
	<polygon fill="#F6EC13" stroke="#000000" stroke-width="4" stroke-miterlimit="10" points="964.367,280.924 976.339,301.389 
		986.494,301.389 974.405,280.924 	"/>
	<polygon fill="#F6EC13" stroke="#000000" stroke-width="4" stroke-miterlimit="10" points="1007.172,280.924 1019.141,301.389 
		1029.297,301.389 1017.207,280.924 	"/>
	<polygon fill="#F6EC13" stroke="#000000" stroke-width="4" stroke-miterlimit="10" points="1049.248,280.924 1061.218,301.389 
		1071.373,301.389 1059.281,280.924 	"/>
	
		<line fill="none" stroke="#000000" stroke-width="4" stroke-miterlimit="10" x1="744.66" y1="290.977" x2="1092.666" y2="290.977"/>
	
		<rect x="770.139" y="259.798" fill="#B0AFAD" stroke="#000000" stroke-width="4" stroke-miterlimit="10" width="322.527" height="12.877"/>
	<polygon fill="#F5EB0F" stroke="#000000" stroke-width="4" stroke-miterlimit="10" points="805.503,277.245 805.503,259.798 
		808.493,256.207 818.287,256.207 821.101,259.798 821.101,277.245 	"/>
	<polygon fill="#F5EB0F" stroke="#000000" stroke-width="4" stroke-miterlimit="10" points="849.031,276.756 849.031,259.308 
		852.023,255.717 861.817,255.717 864.628,259.308 864.628,276.756 	"/>
	<polygon fill="#F5EB0F" stroke="#000000" stroke-width="4" stroke-miterlimit="10" points="890.987,277 890.987,259.553 
		893.979,255.962 903.773,255.962 906.585,259.553 906.585,277 	"/>
	<polygon fill="#F5EB0F" stroke="#000000" stroke-width="4" stroke-miterlimit="10" points="932.698,276.511 932.698,259.063 
		935.693,255.472 945.486,255.472 948.297,259.063 948.297,276.511 	"/>
	<polygon fill="#F5EB0F" stroke="#000000" stroke-width="4" stroke-miterlimit="10" points="974.294,276.756 974.294,259.308 
		977.282,255.717 987.076,255.717 989.891,259.308 989.891,276.756 	"/>
	<polygon fill="#F5EB0F" stroke="#000000" stroke-width="4" stroke-miterlimit="10" points="1016.248,277 1016.248,259.553 
		1019.24,255.962 1029.031,255.962 1031.846,259.553 1031.846,277 	"/>
	<polygon fill="#F5EB0F" stroke="#000000" stroke-width="4" stroke-miterlimit="10" points="1057.962,276.511 1057.962,259.063 
		1060.952,255.472 1070.748,255.472 1073.561,259.063 1073.561,276.511 	"/>
</g>
<polygon fill="#FEE000" stroke="#000000" stroke-width="2" stroke-miterlimit="10" points="38.667,341.047 83.344,341.047 
	102.979,346.913 85.145,354.716 38.667,354.716 "/>
<polygon stroke="#000000" stroke-width="2" stroke-miterlimit="10" points="1092.666,259.411 1137.344,259.411 1156.979,265.28 
	1139.145,273.08 1092.666,273.08 "/>
<polygon fill="#8B5E3C" stroke="#8B5E3C" stroke-width="2" stroke-miterlimit="10" points="1092.666,424.33 1137.344,424.33 
	1156.979,430.199 1139.145,438 1092.666,438 "/>
<polyline fill="none" stroke="#8B5E3C" stroke-width="4" stroke-miterlimit="10" points="662.645,259.411 662.645,431.33 
	1092.666,431.33 "/>
<text transform="matrix(1.1384 0 0 1 38.6653 327.8435)" font-family="'MyriadPro-Regular'" font-size="14">Cassava In</text>
<text transform="matrix(1.1384 0 0 1 1088.3342 248.5105)" font-family="'MyriadPro-Regular'" font-size="14">Cassava Out</text>
<text transform="matrix(1.1384 0 0 1 1087.0002 415.5105)" font-family="'MyriadPro-Regular'" font-size="14">Sand Out</text>
<g>
	<polygon fill="#0C615D" stroke="#000000" stroke-width="4" stroke-miterlimit="10" points="577.893,261.713 577.893,272.698 
		593.75,272.698 593.75,285.876 577.893,285.876 577.893,301.734 766.027,301.734 766.027,285.876 750.411,286.115 750.171,272.452 
		766.027,272.452 766.027,261.713 	"/>
	<path fill="#6B6B6B" stroke="#000000" stroke-width="4" stroke-miterlimit="10" d="M555.448,140.385c0,0-52.808,51.006,0,120.015
		H789.47V140.385H555.448z"/>
	<line fill="none" stroke="#000000" stroke-width="4" stroke-miterlimit="10" x1="567.763" y1="133.481" x2="567.763" y2="267.45"/>
	
		<line fill="none" stroke="#000000" stroke-width="4" stroke-miterlimit="10" x1="589.358" y1="133.846" x2="589.358" y2="267.813"/>
	
		<line fill="none" stroke="#000000" stroke-width="4" stroke-miterlimit="10" x1="659.641" y1="133.846" x2="659.641" y2="267.813"/>
	
		<line fill="none" stroke="#000000" stroke-width="4" stroke-miterlimit="10" x1="681.235" y1="134.211" x2="681.235" y2="268.177"/>
	<line fill="none" stroke="#000000" stroke-width="4" stroke-miterlimit="10" x1="755.904" y1="139.21" x2="755.904" y2="273.179"/>
	
		<rect x="617.18" y="134.211" fill="#8E8E8E" stroke="#000000" stroke-width="4" stroke-miterlimit="10" width="10.979" height="133.965"/>
	
		<rect x="701.73" y="134.211" fill="#8E8E8E" stroke="#000000" stroke-width="4" stroke-miterlimit="10" width="10.979" height="133.965"/>
	
		<rect x="724.793" y="134.211" fill="#8E8E8E" stroke="#000000" stroke-width="4" stroke-miterlimit="10" width="10.979" height="133.965"/>
	
		<rect x="692.947" y="185.092" fill="#49494A" stroke="#000000" stroke-width="4" stroke-miterlimit="10" width="50.879" height="25.26"/>
	<polygon fill="#5FC6C9" stroke="#000000" stroke-width="4" stroke-miterlimit="10" points="742.974,185.825 742.974,209.738 
		730.279,209.738 730.279,202.903 702.461,202.783 702.461,191.923 730.279,191.923 730.279,185.825 	"/>
	
		<rect x="567.763" y="273.185" fill="#B9AE32" stroke="#000000" stroke-width="4" stroke-miterlimit="10" width="57.472" height="12.931"/>
	<polygon stroke="#000000" stroke-width="4" stroke-miterlimit="10" points="594.239,268.177 771.157,268.177 771.157,293.438 
		663.054,293.438 663.054,288.312 646.461,288.073 646.702,286.115 626.204,286.115 626.204,271.961 594.239,271.23 	"/>
	
		<rect x="655.732" y="277.088" fill="#EDE823" stroke="#000000" stroke-width="4" stroke-miterlimit="10" width="83.938" height="9.027"/>
	<rect x="660.725" y="303.439" stroke="#000000" stroke-width="4" stroke-miterlimit="10" width="111.65" height="4.639"/>
	
		<line fill="none" stroke="#000000" stroke-width="4" stroke-miterlimit="10" x1="682.698" y1="293.438" x2="682.698" y2="300.758"/>
	
		<line fill="none" stroke="#000000" stroke-width="4" stroke-miterlimit="10" x1="742.974" y1="294.414" x2="742.974" y2="300.758"/>
	<polygon stroke="#000000" stroke-width="4" stroke-miterlimit="10" points="774.815,139.21 782.134,139.21 782.134,150.313 
		785.308,150.313 785.308,166.907 782.377,166.907 782.619,240.113 785.308,240.113 785.308,260.612 781.642,260.612 
		774.815,260.612 	"/>
	<polygon fill="#020202" stroke="#000000" stroke-width="4" stroke-miterlimit="10" points="786.528,150.193 794.577,150.193 
		794.577,146.047 800.438,146.047 800.438,157.028 794.577,157.028 794.577,153.122 786.528,153.122 	"/>
	<polygon fill="#020202" stroke="#000000" stroke-width="4" stroke-miterlimit="10" points="786.528,242.804 794.577,242.804 
		794.577,238.654 800.438,238.654 800.438,249.635 794.577,249.635 794.577,245.73 786.528,245.73 	"/>
	<text transform="matrix(1.1384 0 0 1 617.178 121.6677)" font-family="'MyriadPro-Regular'" font-size="18">De-sanding01</text>
</g>
<text transform="matrix(1.1503 0 0 1 1094.2893 51.8376)" font-family="'MyriadPro-Regular'" font-size="13.309">Activated</text>
<ellipse fill="#ABADAA" stroke="#848484" stroke-miterlimit="10" cx="1067.957" cy="48.183" rx="20.068" ry="18.25"/>
<ellipse id="status-light" fill="#666665" stroke="#848484" stroke-miterlimit="10" cx="1067.718" cy="48.183" rx="13.398" ry="12.969"/>
<rect x="961.588" y="-7.257" fill="none" width="199.018" height="88"/>
</svg>
