<?xml version="1.0" encoding="utf-8"?>
<!-- Generator: Adobe Illustrator 16.0.0, SVG Export Plug-In . SVG Version: 6.00 Build 0)  -->
<!DOCTYPE svg PUBLIC "-//W3C//DTD SVG 1.1//EN" "http://www.w3.org/Graphics/SVG/1.1/DTD/svg11.dtd">
<svg version="1.1" id="Layer_1" xmlns="http://www.w3.org/2000/svg" xmlns:xlink="http://www.w3.org/1999/xlink" x="0px" y="0px"
	 width="1200px" height="580px" viewBox="0 0 1200 580" enable-background="new 0 0 1200 580" xml:space="preserve">
<rect x="0" y="0" fill="#CFCECE" width="1200" height="580"/>
<g>
	
		<rect x="836.263" y="281.131" fill="#E2E0DE" stroke="#000000" stroke-width="4" stroke-miterlimit="10" width="255.581" height="10.271"/>
	
		<rect x="834.701" y="287.639" fill="#727171" stroke="#000000" stroke-width="4" stroke-miterlimit="10" width="257.143" height="10.265"/>
	<polygon fill="#928D34" stroke="#000000" stroke-width="4" stroke-miterlimit="10" points="863.769,316.863 875.909,300.837 
		883.049,300.837 871.239,316.863 	"/>
	<polygon fill="#928D34" stroke="#000000" stroke-width="4" stroke-miterlimit="10" points="898.521,316.863 910.661,300.837 
		917.799,300.837 905.99,316.863 	"/>
	<polygon fill="#928D34" stroke="#000000" stroke-width="4" stroke-miterlimit="10" points="932.064,316.863 944.211,300.837 
		951.344,300.837 939.531,316.863 	"/>
	<polygon fill="#928D34" stroke="#000000" stroke-width="4" stroke-miterlimit="10" points="964.829,316.863 976.979,300.837 
		984.111,300.837 972.303,316.863 	"/>
	<polygon fill="#928D34" stroke="#000000" stroke-width="4" stroke-miterlimit="10" points="998.377,316.863 1010.523,300.837 
		1017.656,300.837 1005.848,316.863 	"/>
	<polygon fill="#928D34" stroke="#000000" stroke-width="4" stroke-miterlimit="10" points="1033.129,316.863 1045.274,300.837 
		1052.406,300.837 1040.6,316.863 	"/>
	<polygon fill="#928D34" stroke="#000000" stroke-width="4" stroke-miterlimit="10" points="1066.674,316.863 1078.82,300.837 
		1085.949,300.837 1074.145,316.863 	"/>
	<polygon fill="#928D34" stroke="#000000" stroke-width="4" stroke-miterlimit="10" points="830.223,316.863 842.365,300.837 
		849.502,300.837 837.694,316.863 	"/>
	
		<rect x="814.396" y="317.154" fill="#F6EC13" stroke="#000000" stroke-width="4" stroke-miterlimit="10" width="277.441" height="5.214"/>
	
		<rect x="814.396" y="297.904" fill="#F6EC13" stroke="#000000" stroke-width="4" stroke-miterlimit="10" width="277.441" height="2.934"/>
	<polygon fill="#F6EC13" stroke="#000000" stroke-width="4" stroke-miterlimit="10" points="854.948,300.837 864.49,317.154 
		872.589,317.154 862.948,300.837 	"/>
	<polygon fill="#F6EC13" stroke="#000000" stroke-width="4" stroke-miterlimit="10" points="889.073,300.837 898.613,317.154 
		906.713,317.154 897.073,300.837 	"/>
	<polygon fill="#F6EC13" stroke="#000000" stroke-width="4" stroke-miterlimit="10" points="922.615,300.837 932.156,317.154 
		940.258,317.154 930.615,300.837 	"/>
	<polygon fill="#F6EC13" stroke="#000000" stroke-width="4" stroke-miterlimit="10" points="956.012,300.837 965.557,317.154 
		973.652,317.154 964.012,300.837 	"/>
	<polygon fill="#F6EC13" stroke="#000000" stroke-width="4" stroke-miterlimit="10" points="989.558,300.837 999.101,317.154 
		1007.197,317.154 997.558,300.837 	"/>
	<polygon fill="#F6EC13" stroke="#000000" stroke-width="4" stroke-miterlimit="10" points="1023.682,300.837 1033.226,317.154 
		1041.322,317.154 1031.682,300.837 	"/>
	<polygon fill="#F6EC13" stroke="#000000" stroke-width="4" stroke-miterlimit="10" points="1057.229,300.837 1066.77,317.154 
		1074.865,317.154 1065.229,300.837 	"/>
	
		<line fill="none" stroke="#000000" stroke-width="4" stroke-miterlimit="10" x1="814.396" y1="308.852" x2="1091.844" y2="308.852"/>
	
		<rect x="834.701" y="283.994" fill="#B0AFAD" stroke="#000000" stroke-width="4" stroke-miterlimit="10" width="257.143" height="10.271"/>
	<polygon fill="#F5EB0F" stroke="#000000" stroke-width="4" stroke-miterlimit="10" points="862.9,297.904 862.9,283.994 
		865.282,281.131 873.095,281.131 875.337,283.994 875.337,297.904 	"/>
	<polygon fill="#F5EB0F" stroke="#000000" stroke-width="4" stroke-miterlimit="10" points="897.604,297.514 897.604,283.604 
		899.989,280.74 907.797,280.74 910.033,283.604 910.033,297.514 	"/>
	<polygon fill="#F5EB0F" stroke="#000000" stroke-width="4" stroke-miterlimit="10" points="931.053,297.709 931.053,283.799 
		933.439,280.937 941.242,280.937 943.486,283.799 943.486,297.709 	"/>
	<polygon fill="#F5EB0F" stroke="#000000" stroke-width="4" stroke-miterlimit="10" points="964.31,297.318 964.31,283.409 
		966.693,280.545 974.503,280.545 976.74,283.409 976.74,297.318 	"/>
	<polygon fill="#F5EB0F" stroke="#000000" stroke-width="4" stroke-miterlimit="10" points="997.47,297.514 997.47,283.604 
		999.855,280.74 1007.664,280.74 1009.904,283.604 1009.904,297.514 	"/>
	<polygon fill="#F5EB0F" stroke="#000000" stroke-width="4" stroke-miterlimit="10" points="1030.92,297.709 1030.92,283.799 
		1033.304,280.937 1041.111,280.937 1043.354,283.799 1043.354,297.709 	"/>
	<polygon fill="#F5EB0F" stroke="#000000" stroke-width="4" stroke-miterlimit="10" points="1064.174,297.318 1064.174,283.409 
		1066.561,280.545 1074.365,280.545 1076.609,283.409 1076.609,297.318 	"/>
</g>
<g>
	
		<rect x="127.807" y="280.902" fill="#E2E0DE" stroke="#000000" stroke-width="4" stroke-miterlimit="10" width="255.579" height="10.266"/>
	
		<rect x="126.249" y="287.408" fill="#727171" stroke="#000000" stroke-width="4" stroke-miterlimit="10" width="257.137" height="10.267"/>
	<polygon fill="#928D34" stroke="#000000" stroke-width="4" stroke-miterlimit="10" points="155.312,316.635 167.458,300.609 
		174.591,300.609 162.783,316.635 	"/>
	<polygon fill="#928D34" stroke="#000000" stroke-width="4" stroke-miterlimit="10" points="190.063,316.635 202.208,300.609 
		209.342,300.609 197.533,316.635 	"/>
	<polygon fill="#928D34" stroke="#000000" stroke-width="4" stroke-miterlimit="10" points="223.608,316.635 235.754,300.609 
		242.887,300.609 231.079,316.635 	"/>
	<polygon fill="#928D34" stroke="#000000" stroke-width="4" stroke-miterlimit="10" points="256.375,316.635 268.521,300.609 
		275.654,300.609 263.846,316.635 	"/>
	<polygon fill="#928D34" stroke="#000000" stroke-width="4" stroke-miterlimit="10" points="289.921,316.635 302.067,300.609 
		309.2,300.609 297.392,316.635 	"/>
	<polygon fill="#928D34" stroke="#000000" stroke-width="4" stroke-miterlimit="10" points="324.672,316.635 336.818,300.609 
		343.951,300.609 332.142,316.635 	"/>
	<polygon fill="#928D34" stroke="#000000" stroke-width="4" stroke-miterlimit="10" points="358.217,316.635 370.363,300.609 
		377.496,300.609 365.688,316.635 	"/>
	<polygon fill="#928D34" stroke="#000000" stroke-width="4" stroke-miterlimit="10" points="121.767,316.635 133.912,300.609 
		141.045,300.609 129.236,316.635 	"/>
	
		<rect x="105.939" y="316.925" fill="#F6EC13" stroke="#000000" stroke-width="4" stroke-miterlimit="10" width="277.447" height="5.219"/>
	
		<rect x="105.939" y="297.675" fill="#F6EC13" stroke="#000000" stroke-width="4" stroke-miterlimit="10" width="277.447" height="2.938"/>
	<polygon fill="#F6EC13" stroke="#000000" stroke-width="4" stroke-miterlimit="10" points="112.946,300.609 122.489,316.925 
		130.586,316.925 120.947,300.609 	"/>
	<polygon fill="#F6EC13" stroke="#000000" stroke-width="4" stroke-miterlimit="10" points="146.492,300.609 156.035,316.925 
		164.132,316.925 154.492,300.609 	"/>
	<polygon fill="#F6EC13" stroke="#000000" stroke-width="4" stroke-miterlimit="10" points="180.615,300.609 190.158,316.925 
		198.256,316.925 188.616,300.609 	"/>
	<polygon fill="#F6EC13" stroke="#000000" stroke-width="4" stroke-miterlimit="10" points="214.162,300.609 223.705,316.925 
		231.801,316.925 222.162,300.609 	"/>
	<polygon fill="#F6EC13" stroke="#000000" stroke-width="4" stroke-miterlimit="10" points="247.555,300.609 257.098,316.925 
		265.196,316.925 255.556,300.609 	"/>
	<polygon fill="#F6EC13" stroke="#000000" stroke-width="4" stroke-miterlimit="10" points="281.101,300.609 290.644,316.925 
		298.741,316.925 289.102,300.609 	"/>
	<polygon fill="#F6EC13" stroke="#000000" stroke-width="4" stroke-miterlimit="10" points="315.225,300.609 324.768,316.925 
		332.865,316.925 323.226,300.609 	"/>
	<polygon fill="#F6EC13" stroke="#000000" stroke-width="4" stroke-miterlimit="10" points="348.771,300.609 358.313,316.925 
		366.411,316.925 356.771,300.609 	"/>
	
		<line fill="none" stroke="#000000" stroke-width="4" stroke-miterlimit="10" x1="105.939" y1="308.621" x2="383.386" y2="308.621"/>
	
		<rect x="126.249" y="283.764" fill="#B0AFAD" stroke="#000000" stroke-width="4" stroke-miterlimit="10" width="257.137" height="10.265"/>
	<polygon fill="#F5EB0F" stroke="#000000" stroke-width="4" stroke-miterlimit="10" points="154.444,297.675 154.444,283.764 
		156.83,280.902 164.638,280.902 166.879,283.764 166.879,297.675 	"/>
	<polygon fill="#F5EB0F" stroke="#000000" stroke-width="4" stroke-miterlimit="10" points="189.146,297.284 189.146,283.374 
		191.532,280.512 199.34,280.512 201.581,283.374 201.581,297.284 	"/>
	<polygon fill="#F5EB0F" stroke="#000000" stroke-width="4" stroke-miterlimit="10" points="222.595,297.479 222.595,283.567 
		224.982,280.706 232.79,280.706 235.031,283.567 235.031,297.479 	"/>
	<polygon fill="#F5EB0F" stroke="#000000" stroke-width="4" stroke-miterlimit="10" points="255.852,297.088 255.852,283.178 
		258.238,280.314 266.046,280.314 268.287,283.178 268.287,297.088 	"/>
	<polygon fill="#F5EB0F" stroke="#000000" stroke-width="4" stroke-miterlimit="10" points="289.013,297.284 289.013,283.374 
		291.398,280.512 299.206,280.512 301.447,283.374 301.447,297.284 	"/>
	<polygon fill="#F5EB0F" stroke="#000000" stroke-width="4" stroke-miterlimit="10" points="322.461,297.479 322.461,283.567 
		324.848,280.706 332.656,280.706 334.896,283.567 334.896,297.479 	"/>
	<polygon fill="#F5EB0F" stroke="#000000" stroke-width="4" stroke-miterlimit="10" points="355.718,297.088 355.718,283.178 
		358.104,280.314 365.912,280.314 368.153,283.178 368.153,297.088 	"/>
</g>
<polygon stroke="#000000" stroke-width="2" stroke-miterlimit="10" points="38.843,302.643 83.521,302.643 103.156,308.512 
	85.322,316.313 38.843,316.313 "/>
<polygon stroke="#000000" stroke-width="2" stroke-miterlimit="10" points="1091.843,303.009 1136.521,303.009 1156.156,308.881 
	1138.321,316.68 1091.843,316.68 "/>
<polygon fill="#036B11" stroke="#036B11" stroke-width="2" stroke-miterlimit="10" points="1094.677,451.686 1139.354,451.686 
	1158.99,457.555 1141.155,465.354 1094.677,465.354 "/>
<text transform="matrix(1.1384 0 0 1 22.844 294.032)" font-family="'MyriadPro-Regular'" font-size="14">Cassava In</text>
<text transform="matrix(1.1384 0 0 1 1096.51 288.1111)" font-family="'MyriadPro-Regular'" font-size="14">Cassava Out</text>
<text transform="matrix(1.1384 0 0 1 1089.01 442.865)" font-family="'MyriadPro-Regular'" font-size="14">Water Drain</text>
<polyline fill="none" stroke="#036B11" stroke-width="3" stroke-miterlimit="10" points="836.263,325.693 836.263,458.52 
	1093.521,458.52 "/>
<polygon fill="#0696B7" stroke="#0696B7" stroke-width="2" stroke-miterlimit="10" points="38.843,169.872 83.521,169.872 
	103.156,175.741 85.322,183.542 38.843,183.542 "/>
<text transform="matrix(1.1384 0 0 1 35.844 163.6726)" font-family="'MyriadPro-Regular'" font-size="14">Water</text>
<polyline fill="none" stroke="#0696B7" stroke-width="3" stroke-miterlimit="10" points="383.61,225.679 383.61,175.741 
	103.156,175.741 "/>
<g>
	
		<rect x="373.122" y="225.679" fill="#BCBBBB" stroke="#000000" stroke-width="4" stroke-miterlimit="10" width="471.093" height="110.438"/>
	
		<line fill="none" stroke="#000000" stroke-width="4" stroke-miterlimit="10" x1="375.351" y1="280.897" x2="843.215" y2="280.897"/>
	<polygon fill="#2B2B2B" stroke="#000000" stroke-width="4" stroke-miterlimit="10" points="405.088,280.897 418.974,269.667 
		432.729,280.897 418.907,291.046 	"/>
	<polygon fill="#2B2B2B" stroke="#000000" stroke-width="4" stroke-miterlimit="10" points="423.57,272.4 443.844,254.562 
		436.522,247.72 446.125,239.458 458.948,251.144 429.013,276.844 	"/>
	<polygon fill="#2B2B2B" stroke="#000000" stroke-width="4" stroke-miterlimit="10" points="409.771,275.839 391.938,255.567 
		385.096,262.888 376.833,253.29 388.517,240.467 415.245,271.241 	"/>
	<polygon fill="#2B2B2B" stroke="#000000" stroke-width="4" stroke-miterlimit="10" points="414.836,287.978 394.564,305.813 
		401.882,312.652 392.279,320.923 379.457,309.234 409.393,283.534 	"/>
	<polygon fill="#2B2B2B" stroke="#000000" stroke-width="4" stroke-miterlimit="10" points="428.632,284.541 446.472,304.809 
		453.308,297.482 461.573,307.091 449.89,319.911 423.156,289.132 	"/>
	<polygon fill="#2B2B2B" stroke="#000000" stroke-width="4" stroke-miterlimit="10" points="500.016,281.066 513.899,269.839 
		527.652,281.066 513.837,291.221 	"/>
	<polygon fill="#2B2B2B" stroke="#000000" stroke-width="4" stroke-miterlimit="10" points="518.49,272.569 538.767,254.732 
		531.443,247.895 541.045,239.63 553.865,251.312 523.934,277.017 	"/>
	<polygon fill="#2B2B2B" stroke="#000000" stroke-width="4" stroke-miterlimit="10" points="504.692,276.009 486.855,255.739 
		480.019,263.058 471.754,253.461 483.442,240.636 510.175,271.413 	"/>
	<polygon fill="#2B2B2B" stroke="#000000" stroke-width="4" stroke-miterlimit="10" points="509.762,288.146 489.485,305.984 
		496.808,312.826 487.207,321.092 474.384,309.404 504.317,283.7 	"/>
	<polygon fill="#2B2B2B" stroke="#000000" stroke-width="4" stroke-miterlimit="10" points="523.556,284.707 541.393,304.98 
		548.234,297.662 556.495,307.262 544.815,320.086 518.077,289.306 	"/>
	<polygon fill="#2B2B2B" stroke="#000000" stroke-width="4" stroke-miterlimit="10" points="593.14,280.981 607.029,269.754 
		620.78,280.981 606.954,291.135 	"/>
	<polygon fill="#2B2B2B" stroke="#000000" stroke-width="4" stroke-miterlimit="10" points="611.619,272.485 631.896,254.646 
		624.575,247.808 634.177,239.542 646.993,251.226 617.067,276.931 	"/>
	<polygon fill="#2B2B2B" stroke="#000000" stroke-width="4" stroke-miterlimit="10" points="597.823,275.924 579.986,255.652 
		573.153,262.97 564.886,253.374 576.573,240.549 603.304,271.321 	"/>
	<polygon fill="#2B2B2B" stroke="#000000" stroke-width="4" stroke-miterlimit="10" points="602.891,288.062 582.615,305.9 
		589.936,312.736 580.334,321.005 567.511,309.318 597.446,283.616 	"/>
	<polygon fill="#2B2B2B" stroke="#000000" stroke-width="4" stroke-miterlimit="10" points="616.688,284.623 634.521,304.893 
		641.362,297.57 649.627,307.175 637.942,319.995 611.203,289.222 	"/>
	<polygon fill="#2B2B2B" stroke="#000000" stroke-width="4" stroke-miterlimit="10" points="688.063,281.15 701.949,269.928 
		715.702,281.15 701.884,291.3 	"/>
	<polygon fill="#2B2B2B" stroke="#000000" stroke-width="4" stroke-miterlimit="10" points="706.547,272.656 726.817,254.817 
		719.494,247.978 729.1,239.716 741.923,251.394 711.988,277.097 	"/>
	<polygon fill="#2B2B2B" stroke="#000000" stroke-width="4" stroke-miterlimit="10" points="692.742,276.094 674.908,255.821 
		668.071,263.147 659.809,253.546 671.49,240.722 698.227,271.499 	"/>
	<polygon fill="#2B2B2B" stroke="#000000" stroke-width="4" stroke-miterlimit="10" points="697.814,288.231 677.536,306.068 
		684.854,312.911 675.262,321.174 662.44,309.49 692.369,283.786 	"/>
	<polygon fill="#2B2B2B" stroke="#000000" stroke-width="4" stroke-miterlimit="10" points="711.608,284.792 729.444,305.064 
		736.281,297.746 744.546,307.348 732.865,320.172 706.133,289.39 	"/>
	<polygon fill="#2B2B2B" stroke="#000000" stroke-width="4" stroke-miterlimit="10" points="781.965,281.519 795.851,270.288 
		809.607,281.519 795.781,291.67 	"/>
	<polygon fill="#2B2B2B" stroke="#000000" stroke-width="4" stroke-miterlimit="10" points="800.447,273.024 820.718,255.185 
		813.4,248.345 823.003,240.082 835.823,251.765 805.889,277.47 	"/>
	<polygon fill="#2B2B2B" stroke="#000000" stroke-width="4" stroke-miterlimit="10" points="786.651,276.462 768.813,256.192 
		761.975,263.509 753.709,253.909 765.396,241.086 792.118,271.865 	"/>
	<polygon fill="#2B2B2B" stroke="#000000" stroke-width="4" stroke-miterlimit="10" points="791.712,288.597 771.438,306.434 
		778.759,313.277 769.156,321.545 756.334,309.855 786.269,284.153 	"/>
	<polygon fill="#2B2B2B" stroke="#000000" stroke-width="4" stroke-miterlimit="10" points="805.51,285.162 823.343,305.432 
		830.188,298.111 838.448,307.711 826.764,320.529 800.031,289.761 	"/>
	<text transform="matrix(1.1384 0 0 1 567.1731 205.0105)" font-family="'MyriadPro-Regular'" font-size="18">Washer01</text>
</g>
<text transform="matrix(1.1503 0 0 1 1085.5999 59.0955)" font-family="'MyriadPro-Regular'" font-size="13.309">Activated</text>
<ellipse fill="#ABADAA" stroke="#848484" stroke-miterlimit="10" cx="1059.27" cy="55.439" rx="20.069" ry="18.25"/>
<ellipse id="status-light" fill="#666665" stroke="#848484" stroke-miterlimit="10" cx="1059.028" cy="55.439" rx="13.398" ry="12.969"/>
<rect x="952.898" y="0" fill="none" width="199.017" height="88"/>
</svg>
